<svg width="580" height="360" viewBox="0 0 580 360" fill="none" xmlns="http://www.w3.org/2000/svg">
<rect x="0.4" y="0.4" width="579.2" height="359.2" rx="3.6" fill="#F5F5F5"/>
<rect x="0.4" y="0.4" width="579.2" height="359.2" rx="3.6" stroke="#E5E5E5" stroke-width="0.8"/>
<g clip-path="url(#clip0_297_6040)">
<mask id="mask0_297_6040" style="mask-type:luminance" maskUnits="userSpaceOnUse" x="415" y="31" width="84" height="78">
<path d="M499 31H415V108.964H499V31Z" fill="white"/>
</mask>
<g mask="url(#mask0_297_6040)">
<path d="M465.791 73.8801L459.93 31H459.492C438.182 31.0621 420.923 48.2831 420.86 69.5453V69.9819L465.791 73.8801Z" fill="#ED6C47"/>
<path d="M460.368 31H459.93V69.9819L479.465 77.7783L499 69.9819V69.5453C498.938 48.2831 481.678 31.0621 460.368 31Z" fill="#FF8F6B"/>
<path d="M499 69.9819V70.4107C498.938 91.6777 481.675 108.903 460.36 108.964H459.5C438.185 108.903 420.922 91.6777 420.86 70.4107V69.9819H499Z" fill="#D35230"/>
<path opacity="0.1" d="M461.884 50.1597V91.7534C461.874 93.1986 460.996 94.497 459.657 95.0473C459.23 95.2273 458.772 95.3201 458.309 95.3202H430.081C429.534 94.6965 429.006 94.0338 428.518 93.3711C423.541 86.7468 420.854 78.6897 420.86 70.4108V69.5532C420.849 62.0858 423.036 54.7796 427.151 48.5419C427.58 47.8792 428.03 47.2165 428.518 46.5928H458.309C460.277 46.6077 461.869 48.1959 461.884 50.1597Z" fill="black"/>
<path opacity="0.2" d="M459.93 52.1088V93.7025C459.93 94.1645 459.837 94.6219 459.657 95.0474C459.105 96.3838 457.804 97.2597 456.355 97.2694H431.859C431.241 96.6433 430.647 95.9931 430.081 95.3203C429.534 94.6965 429.006 94.0338 428.518 93.3712C423.541 86.7469 420.854 78.6897 420.86 70.4108V69.5532C420.849 62.0859 423.036 54.7797 427.151 48.542H456.355C458.323 48.5568 459.915 50.145 459.93 52.1088Z" fill="black"/>
<path opacity="0.2" d="M459.93 52.1088V89.8043C459.915 91.7681 458.323 93.3563 456.355 93.3712H428.518C423.541 86.7469 420.854 78.6897 420.86 70.4109V69.5533C420.849 62.0859 423.036 54.7797 427.151 48.542H456.355C458.323 48.5568 459.915 50.145 459.93 52.1088Z" fill="black"/>
<path opacity="0.2" d="M457.977 52.1088V89.8043C457.962 91.7681 456.37 93.3563 454.402 93.3712H428.518C423.541 86.7469 420.854 78.6897 420.86 70.4109V69.5533C420.849 62.0859 423.036 54.7797 427.151 48.542H454.402C456.37 48.5568 457.962 50.145 457.977 52.1088Z" fill="black"/>
<path d="M418.581 48.542H454.396C456.374 48.542 457.977 50.1415 457.977 52.1146V87.8493C457.977 89.8225 456.374 91.4221 454.396 91.4221H418.581C416.603 91.4221 415 89.8225 415 87.8494V52.1146C415 50.1415 416.603 48.542 418.581 48.542Z" fill="url(#paint0_linear_297_6040)"/>
<path d="M436.879 58.0711C439.211 57.9141 441.522 58.5899 443.4 59.9773C444.966 61.3726 445.803 63.4084 445.67 65.4991C445.695 66.9525 445.307 68.3833 444.551 69.6254C443.784 70.8461 442.681 71.8195 441.372 72.4282C439.877 73.1223 438.241 73.465 436.592 73.43H432.062V81.8306H427.422V58.0711H436.879ZM432.058 69.8008H436.051C437.317 69.8936 438.573 69.5198 439.581 68.7502C440.415 67.9522 440.852 66.8268 440.775 65.6766C440.775 63.0582 439.249 61.7491 436.199 61.7491H432.058V69.8008H432.058Z" fill="white"/>
</g>
</g>
<g clip-path="url(#clip1_297_6040)">
<path d="M457 244H389V312H457V244Z" fill="url(#paint1_linear_297_6040)"/>
<path fill-rule="evenodd" clip-rule="evenodd" d="M433.436 274.994C432.499 274.994 431.736 274.233 431.736 273.298C431.736 272.362 432.499 271.602 433.436 271.602C434.374 271.602 435.136 272.362 435.136 273.298C435.136 274.233 434.374 274.994 433.436 274.994ZM425.786 283.473C424.849 283.473 424.086 282.713 424.086 281.777C424.086 280.842 424.849 280.081 425.786 280.081C426.724 280.081 427.486 280.842 427.486 281.777C427.486 282.713 426.724 283.473 425.786 283.473ZM418.986 273.298C418.049 273.298 417.286 272.537 417.286 271.602C417.286 270.666 418.049 269.906 418.986 269.906C419.924 269.906 420.686 270.666 420.686 271.602C420.686 272.537 419.924 273.298 418.986 273.298ZM410.486 281.777C409.549 281.777 408.786 281.017 408.786 280.081C408.786 279.146 409.549 278.385 410.486 278.385C411.424 278.385 412.186 279.146 412.186 280.081C412.186 281.017 411.424 281.777 410.486 281.777ZM433.436 269.906C431.561 269.906 430.036 271.427 430.036 273.298C430.036 274.196 430.395 275.01 430.97 275.617L427.88 279.125C427.301 278.669 426.58 278.385 425.786 278.385C425.441 278.385 425.112 278.452 424.797 278.549L421.625 273.716C422.093 273.134 422.386 272.405 422.386 271.602C422.386 269.731 420.862 268.21 418.986 268.21C417.111 268.21 415.586 269.731 415.586 271.602C415.586 272.34 415.83 273.019 416.234 273.577L412.457 277.327C411.899 276.929 411.223 276.69 410.486 276.69C408.611 276.69 407.086 278.211 407.086 280.081C407.086 281.952 408.611 283.473 410.486 283.473C412.362 283.473 413.886 281.952 413.886 280.081C413.886 279.562 413.76 279.075 413.55 278.635L417.548 274.664C417.986 274.87 418.471 274.994 418.986 274.994C419.439 274.994 419.869 274.901 420.265 274.741L423.343 279.429C422.754 280.04 422.386 280.865 422.386 281.777C422.386 283.648 423.911 285.169 425.786 285.169C427.662 285.169 429.186 283.648 429.186 281.777C429.186 281.325 429.094 280.895 428.931 280.5L432.434 276.522C432.753 276.621 433.085 276.69 433.436 276.69C435.312 276.69 436.836 275.168 436.836 273.298C436.836 271.427 435.312 269.906 433.436 269.906ZM438.904 286.865H431.133C430.953 286.865 430.778 286.922 430.632 287.028L417.286 296.735V287.713C417.286 287.245 416.907 286.865 416.436 286.865H406.851C405.991 286.864 405.312 286.7 404.775 286.362C403.007 285.248 400.9 283.106 400.9 279.222C400.9 274.04 404.514 272.342 406.668 271.79C407.062 271.689 407.329 271.323 407.305 270.918L407.219 269.496C407.219 265.37 410.068 260.931 413.705 259.391C415.341 258.698 416.853 258.422 418.224 258.422C422.121 258.422 424.874 260.653 426.076 261.86C427.398 263.187 428.431 264.882 429.143 266.9C429.248 267.196 429.509 267.411 429.82 267.457C430.133 267.502 430.443 267.374 430.629 267.121C431.71 265.658 433.572 265.048 435.26 265.601C437.154 266.222 438.247 268.064 438.266 270.659L438.261 270.687C438.19 271.145 438.499 271.575 438.956 271.654C440.598 271.937 445.95 273.32 445.95 279.294C445.95 286.238 439.13 286.846 438.904 286.865ZM439.949 270.126C439.774 267.067 438.247 264.796 435.79 263.99C433.861 263.358 431.775 263.793 430.245 265.07C429.487 263.358 428.495 261.88 427.282 260.664C423.391 256.759 418.067 255.7 413.041 257.83C408.752 259.646 405.519 264.662 405.521 269.546L405.568 270.345C403.231 271.107 399.2 273.287 399.2 279.222C399.2 284.125 402.124 286.698 403.868 287.795C404.684 288.309 405.658 288.56 406.85 288.561H415.586V298.402C415.586 298.722 415.766 299.013 416.051 299.158C416.172 299.22 416.305 299.25 416.436 299.25C416.613 299.25 416.789 299.196 416.937 299.088L431.41 288.561L438.966 288.56C439.052 288.553 447.65 287.828 447.65 279.294C447.65 272.715 442.424 270.707 439.949 270.126Z" fill="white"/>
</g>
<g clip-path="url(#clip2_297_6040)">
<mask id="mask1_297_6040" style="mask-type:luminance" maskUnits="userSpaceOnUse" x="98" y="63" width="68" height="63">
<path d="M166 63H98V125.971H166V63Z" fill="white"/>
</mask>
<g mask="url(#mask1_297_6040)">
<path d="M163.101 63H116.713C115.112 63 113.814 64.2919 113.814 65.8856V78.7427L140.698 86.614L166 78.7427V65.8856C166 64.2919 164.702 63 163.101 63Z" fill="#41A5EE"/>
<path d="M166 78.7427H113.814V94.4853L140.698 99.2082L166 94.4853V78.7427Z" fill="#2B7CD3"/>
<path d="M113.814 94.4854V110.228L139.116 113.377L166 110.228V94.4854H113.814Z" fill="#185ABD"/>
<path d="M116.713 125.971H163.101C164.702 125.971 166 124.679 166 123.085V110.228H113.814V123.085C113.814 124.679 115.112 125.971 116.713 125.971Z" fill="#103F91"/>
<path opacity="0.1" d="M133.055 75.5942H113.814V114.951H133.055C134.654 114.946 135.948 113.657 135.953 112.065V78.4799C135.948 76.8883 134.654 75.5994 133.055 75.5942Z" fill="black"/>
<path opacity="0.2" d="M131.473 77.1685H113.814V116.525H131.473C133.072 116.52 134.367 115.231 134.372 113.64V80.0541C134.367 78.4626 133.072 77.1736 131.473 77.1685Z" fill="black"/>
<path opacity="0.2" d="M131.473 77.1685H113.814V113.377H131.473C133.072 113.371 134.367 112.083 134.372 110.491V80.0541C134.367 78.4626 133.072 77.1736 131.473 77.1685Z" fill="black"/>
<path opacity="0.2" d="M129.892 77.1685H113.814V113.377H129.892C131.491 113.371 132.785 112.083 132.791 110.491V80.0541C132.785 78.4626 131.491 77.1736 129.892 77.1685Z" fill="black"/>
<path d="M100.899 77.1685H129.892C131.493 77.1685 132.791 78.4604 132.791 80.0541V108.917C132.791 110.51 131.493 111.802 129.892 111.802H100.899C99.2978 111.802 98 110.51 98 108.917V80.0541C98 78.4604 99.2978 77.1685 100.899 77.1685Z" fill="url(#paint2_linear_297_6040)"/>
<path d="M109.895 99.2995C109.952 99.745 109.99 100.132 110.008 100.464H110.074C110.099 100.15 110.152 99.7702 110.232 99.3262C110.312 98.8823 110.385 98.5071 110.449 98.2007L113.498 85.1059H117.44L120.603 98.0039C120.787 98.8058 120.918 99.6188 120.997 100.438H121.049C121.108 99.6443 121.218 98.8556 121.378 98.0763L123.9 85.0996H127.488L123.057 103.865H118.865L115.86 91.4376C115.773 91.0802 115.674 90.6127 115.565 90.038C115.456 89.4634 115.388 89.0431 115.361 88.7786H115.309C115.274 89.084 115.206 89.5374 115.105 90.1388C115.003 90.7402 114.922 91.1852 114.861 91.4738L112.037 103.862H107.773L103.318 85.1058H106.971L109.718 98.2273C109.78 98.4966 109.839 98.8556 109.895 99.2995Z" fill="white"/>
</g>
</g>
<g clip-path="url(#clip3_297_6040)">
<mask id="mask2_297_6040" style="mask-type:luminance" maskUnits="userSpaceOnUse" x="60" y="230" width="60" height="56">
<path d="M120 230H60V285.974H120V230Z" fill="white"/>
</mask>
<g mask="url(#mask2_297_6040)">
<path d="M97.6745 256.588L73.9536 252.39V283.409C73.9536 284.826 75.0987 285.974 76.5113 285.974H117.442C118.855 285.974 120 284.826 120 283.409V271.981L97.6745 256.588Z" fill="#185C37"/>
<path d="M97.6745 230H76.5113C75.0987 230 73.9536 231.148 73.9536 232.565V243.994L97.6745 257.987L110.233 262.185L120 257.987V243.994L97.6745 230Z" fill="#21A366"/>
<path d="M73.9536 243.994H97.6745V257.987H73.9536V243.994Z" fill="#107C41"/>
<path opacity="0.1" d="M90.9308 241.195H73.9536V276.179H90.9308C92.3414 276.174 93.4839 275.028 93.4885 273.614V243.76C93.4839 242.345 92.3414 241.199 90.9308 241.195Z" fill="black"/>
<path opacity="0.2" d="M89.5354 242.594H73.9536V277.578H89.5354C90.9461 277.573 92.0886 276.428 92.0931 275.013V245.159C92.0886 243.744 90.9461 242.599 89.5354 242.594Z" fill="black"/>
<path opacity="0.2" d="M89.5354 242.594H73.9536V274.779H89.5354C90.9461 274.775 92.0886 273.629 92.0931 272.214V245.159C92.0886 243.744 90.9461 242.599 89.5354 242.594Z" fill="black"/>
<path opacity="0.2" d="M88.1401 242.594H73.9536V274.779H88.1401C89.5507 274.775 90.6932 273.629 90.6978 272.214V245.159C90.6932 243.744 89.5507 242.599 88.1401 242.594Z" fill="black"/>
<path d="M62.5577 242.594H88.14C89.5525 242.594 90.6977 243.743 90.6977 245.159V270.815C90.6977 272.232 89.5525 273.38 88.14 273.38H62.5577C61.1451 273.38 60 272.232 60 270.815V245.159C60 243.743 61.1451 242.594 62.5577 242.594Z" fill="url(#paint3_linear_297_6040)"/>
<path d="M67.9214 266.325L73.3018 257.963L68.3721 249.648H72.3377L75.0279 254.966C75.2763 255.471 75.4465 255.846 75.5386 256.094H75.5734C75.7502 255.691 75.9362 255.299 76.1316 254.92L79.0074 249.651H82.6479L77.5925 257.917L82.7762 266.324H78.9028L75.7953 260.488C75.649 260.239 75.5247 259.979 75.4242 259.708H75.3781C75.2871 259.973 75.1663 260.227 75.0181 260.464L71.8186 266.325H67.9214Z" fill="white"/>
<path d="M117.442 230H97.6743V243.994H120V232.565C120 231.148 118.855 230 117.442 230Z" fill="#33C481"/>
<path d="M97.6743 257.987H120V271.98H97.6743V257.987Z" fill="#107C41"/>
</g>
</g>
<path d="M137.487 172H133.297V159.636H137.571C138.799 159.636 139.853 159.884 140.735 160.379C141.62 160.87 142.3 161.576 142.775 162.498C143.25 163.42 143.487 164.522 143.487 165.806C143.487 167.094 143.248 168.201 142.769 169.126C142.294 170.052 141.608 170.762 140.71 171.257C139.817 171.752 138.742 172 137.487 172ZM135.537 170.062H137.378C138.239 170.062 138.958 169.905 139.533 169.591C140.109 169.273 140.541 168.8 140.831 168.173C141.121 167.541 141.266 166.752 141.266 165.806C141.266 164.86 141.121 164.076 140.831 163.452C140.541 162.824 140.113 162.355 139.545 162.045C138.982 161.731 138.282 161.574 137.444 161.574H135.537V170.062ZM148.187 172.187C147.6 172.187 147.07 172.083 146.599 171.873C146.133 171.66 145.762 171.346 145.489 170.931C145.219 170.517 145.084 170.006 145.084 169.398C145.084 168.875 145.181 168.442 145.374 168.1C145.567 167.758 145.831 167.484 146.165 167.279C146.499 167.074 146.875 166.919 147.294 166.814C147.716 166.706 148.153 166.627 148.604 166.579C149.147 166.522 149.588 166.472 149.926 166.428C150.264 166.38 150.509 166.307 150.662 166.211C150.819 166.11 150.898 165.955 150.898 165.746V165.71C150.898 165.255 150.763 164.903 150.493 164.653C150.224 164.404 149.835 164.279 149.328 164.279C148.793 164.279 148.368 164.395 148.054 164.629C147.744 164.862 147.535 165.138 147.427 165.456L145.386 165.166C145.547 164.603 145.813 164.132 146.183 163.754C146.553 163.371 147.006 163.085 147.541 162.896C148.077 162.703 148.668 162.607 149.316 162.607C149.763 162.607 150.208 162.659 150.65 162.763C151.093 162.868 151.497 163.041 151.864 163.283C152.23 163.52 152.524 163.844 152.745 164.255C152.97 164.665 153.083 165.178 153.083 165.794V172H150.982V170.726H150.91C150.777 170.984 150.59 171.225 150.348 171.451C150.111 171.672 149.811 171.851 149.449 171.988C149.091 172.121 148.67 172.187 148.187 172.187ZM148.755 170.581C149.193 170.581 149.574 170.495 149.896 170.322C150.218 170.145 150.465 169.911 150.638 169.621C150.815 169.332 150.904 169.016 150.904 168.674V167.581C150.835 167.637 150.719 167.69 150.554 167.738C150.393 167.786 150.212 167.828 150.01 167.865C149.809 167.901 149.61 167.933 149.413 167.961C149.215 167.989 149.044 168.014 148.9 168.034C148.574 168.078 148.282 168.15 148.024 168.251C147.767 168.352 147.563 168.493 147.414 168.674C147.266 168.851 147.191 169.08 147.191 169.362C147.191 169.764 147.338 170.068 147.632 170.273C147.926 170.479 148.3 170.581 148.755 170.581ZM159.911 162.727V164.418H154.58V162.727H159.911ZM155.896 160.506H158.082V169.211C158.082 169.505 158.126 169.73 158.215 169.887C158.307 170.04 158.428 170.145 158.577 170.201C158.726 170.257 158.891 170.286 159.072 170.286C159.209 170.286 159.333 170.275 159.446 170.255C159.563 170.235 159.651 170.217 159.712 170.201L160.08 171.909C159.963 171.95 159.796 171.994 159.579 172.042C159.366 172.091 159.104 172.119 158.794 172.127C158.247 172.143 157.754 172.06 157.315 171.879C156.876 171.694 156.528 171.408 156.271 171.022C156.017 170.636 155.892 170.153 155.896 169.573V160.506ZM164.407 172.187C163.819 172.187 163.29 172.083 162.819 171.873C162.352 171.66 161.982 171.346 161.708 170.931C161.439 170.517 161.304 170.006 161.304 169.398C161.304 168.875 161.401 168.442 161.594 168.1C161.787 167.758 162.051 167.484 162.385 167.279C162.719 167.074 163.095 166.919 163.513 166.814C163.936 166.706 164.373 166.627 164.823 166.579C165.367 166.522 165.807 166.472 166.146 166.428C166.484 166.38 166.729 166.307 166.882 166.211C167.039 166.11 167.117 165.955 167.117 165.746V165.71C167.117 165.255 166.983 164.903 166.713 164.653C166.443 164.404 166.055 164.279 165.548 164.279C165.013 164.279 164.588 164.395 164.274 164.629C163.964 164.862 163.755 165.138 163.646 165.456L161.606 165.166C161.767 164.603 162.032 164.132 162.403 163.754C162.773 163.371 163.226 163.085 163.761 162.896C164.296 162.703 164.888 162.607 165.536 162.607C165.983 162.607 166.427 162.659 166.87 162.763C167.313 162.868 167.717 163.041 168.083 163.283C168.45 163.52 168.743 163.844 168.965 164.255C169.19 164.665 169.303 165.178 169.303 165.794V172H167.202V170.726H167.13C166.997 170.984 166.81 171.225 166.568 171.451C166.331 171.672 166.031 171.851 165.669 171.988C165.31 172.121 164.89 172.187 164.407 172.187ZM164.974 170.581C165.413 170.581 165.793 170.495 166.115 170.322C166.437 170.145 166.685 169.911 166.858 169.621C167.035 169.332 167.124 169.016 167.124 168.674V167.581C167.055 167.637 166.938 167.69 166.773 167.738C166.612 167.786 166.431 167.828 166.23 167.865C166.029 167.901 165.83 167.933 165.632 167.961C165.435 167.989 165.264 168.014 165.119 168.034C164.793 168.078 164.501 168.15 164.244 168.251C163.986 168.352 163.783 168.493 163.634 168.674C163.485 168.851 163.411 169.08 163.411 169.362C163.411 169.764 163.558 170.068 163.852 170.273C164.145 170.479 164.52 170.581 164.974 170.581ZM180.414 162.727V164.418H174.932V162.727H180.414ZM176.303 172V161.852C176.303 161.228 176.431 160.709 176.689 160.294C176.951 159.88 177.301 159.57 177.739 159.365C178.178 159.159 178.665 159.057 179.2 159.057C179.579 159.057 179.915 159.087 180.209 159.147C180.502 159.208 180.72 159.262 180.861 159.31L180.426 161.001C180.333 160.973 180.217 160.944 180.076 160.916C179.935 160.884 179.778 160.868 179.605 160.868C179.198 160.868 178.911 160.967 178.742 161.164C178.577 161.357 178.494 161.635 178.494 161.997V172H176.303ZM182.125 172V162.727H184.244V164.273H184.341C184.51 163.737 184.8 163.325 185.21 163.035C185.625 162.741 186.098 162.594 186.629 162.594C186.75 162.594 186.884 162.6 187.033 162.613C187.186 162.621 187.313 162.635 187.414 162.655V164.665C187.321 164.633 187.174 164.605 186.973 164.581C186.776 164.552 186.585 164.538 186.399 164.538C186.001 164.538 185.643 164.625 185.325 164.798C185.011 164.967 184.763 165.202 184.582 165.504C184.401 165.806 184.311 166.154 184.311 166.549V172H182.125ZM191.368 172.187C190.78 172.187 190.251 172.083 189.78 171.873C189.313 171.66 188.943 171.346 188.669 170.931C188.4 170.517 188.265 170.006 188.265 169.398C188.265 168.875 188.361 168.442 188.555 168.1C188.748 167.758 189.011 167.484 189.345 167.279C189.68 167.074 190.056 166.919 190.474 166.814C190.897 166.706 191.334 166.627 191.784 166.579C192.328 166.522 192.768 166.472 193.106 166.428C193.445 166.38 193.69 166.307 193.843 166.211C194 166.11 194.078 165.955 194.078 165.746V165.71C194.078 165.255 193.944 164.903 193.674 164.653C193.404 164.404 193.016 164.279 192.509 164.279C191.974 164.279 191.549 164.395 191.235 164.629C190.925 164.862 190.716 165.138 190.607 165.456L188.567 165.166C188.728 164.603 188.993 164.132 189.364 163.754C189.734 163.371 190.187 163.085 190.722 162.896C191.257 162.703 191.849 162.607 192.497 162.607C192.943 162.607 193.388 162.659 193.831 162.763C194.274 162.868 194.678 163.041 195.044 163.283C195.411 163.52 195.704 163.844 195.926 164.255C196.151 164.665 196.264 165.178 196.264 165.794V172H194.163V170.726H194.091C193.958 170.984 193.771 171.225 193.529 171.451C193.292 171.672 192.992 171.851 192.63 171.988C192.271 172.121 191.851 172.187 191.368 172.187ZM191.935 170.581C192.374 170.581 192.754 170.495 193.076 170.322C193.398 170.145 193.646 169.911 193.819 169.621C193.996 169.332 194.084 169.016 194.084 168.674V167.581C194.016 167.637 193.899 167.69 193.734 167.738C193.573 167.786 193.392 167.828 193.191 167.865C192.99 167.901 192.791 167.933 192.593 167.961C192.396 167.989 192.225 168.014 192.08 168.034C191.754 168.078 191.462 168.15 191.205 168.251C190.947 168.352 190.744 168.493 190.595 168.674C190.446 168.851 190.372 169.08 190.372 169.362C190.372 169.764 190.519 170.068 190.812 170.273C191.106 170.479 191.481 170.581 191.935 170.581ZM202.494 175.67C201.709 175.67 201.035 175.564 200.472 175.35C199.908 175.141 199.455 174.859 199.113 174.505C198.771 174.151 198.534 173.759 198.401 173.328L200.369 172.851C200.457 173.032 200.586 173.211 200.755 173.388C200.924 173.57 201.152 173.719 201.437 173.835C201.727 173.956 202.091 174.016 202.53 174.016C203.15 174.016 203.663 173.865 204.07 173.564C204.476 173.266 204.679 172.775 204.679 172.091V170.334H204.571C204.458 170.559 204.293 170.791 204.076 171.028C203.862 171.266 203.579 171.465 203.224 171.626C202.874 171.787 202.434 171.867 201.902 171.867C201.19 171.867 200.544 171.7 199.964 171.366C199.389 171.028 198.93 170.525 198.588 169.857C198.25 169.185 198.081 168.344 198.081 167.333C198.081 166.315 198.25 165.456 198.588 164.756C198.93 164.051 199.391 163.518 199.97 163.156C200.55 162.79 201.196 162.607 201.908 162.607C202.452 162.607 202.898 162.699 203.249 162.884C203.603 163.065 203.884 163.285 204.094 163.542C204.303 163.796 204.462 164.035 204.571 164.261H204.691V162.727H206.847V172.151C206.847 172.944 206.657 173.6 206.279 174.119C205.901 174.638 205.384 175.027 204.728 175.284C204.072 175.542 203.327 175.67 202.494 175.67ZM202.512 170.153C202.975 170.153 203.369 170.04 203.695 169.815C204.021 169.589 204.269 169.265 204.438 168.843C204.607 168.42 204.691 167.913 204.691 167.321C204.691 166.738 204.607 166.227 204.438 165.788C204.273 165.349 204.027 165.009 203.701 164.768C203.379 164.522 202.983 164.4 202.512 164.4C202.025 164.4 201.619 164.526 201.293 164.78C200.967 165.033 200.721 165.382 200.556 165.824C200.391 166.263 200.309 166.762 200.309 167.321C200.309 167.889 200.391 168.386 200.556 168.812C200.725 169.235 200.973 169.565 201.299 169.803C201.629 170.036 202.033 170.153 202.512 170.153ZM209.086 172V162.727H211.175V164.303H211.284C211.477 163.772 211.797 163.357 212.244 163.059C212.69 162.757 213.224 162.607 213.843 162.607C214.471 162.607 215 162.759 215.431 163.065C215.866 163.367 216.172 163.78 216.349 164.303H216.445C216.651 163.788 216.997 163.377 217.484 163.071C217.975 162.761 218.556 162.607 219.228 162.607C220.082 162.607 220.778 162.876 221.317 163.415C221.856 163.955 222.126 164.742 222.126 165.776V172H219.935V166.114C219.935 165.538 219.782 165.118 219.476 164.852C219.17 164.583 218.796 164.448 218.353 164.448C217.826 164.448 217.413 164.613 217.115 164.943C216.822 165.269 216.675 165.693 216.675 166.217V172H214.532V166.023C214.532 165.545 214.387 165.162 214.097 164.876C213.811 164.591 213.437 164.448 212.974 164.448C212.66 164.448 212.374 164.528 212.117 164.689C211.859 164.846 211.654 165.07 211.501 165.359C211.348 165.645 211.272 165.979 211.272 166.362V172H209.086ZM228.448 172.181C227.519 172.181 226.716 171.988 226.039 171.602C225.367 171.211 224.85 170.66 224.488 169.947C224.126 169.231 223.945 168.388 223.945 167.418C223.945 166.464 224.126 165.627 224.488 164.907C224.854 164.182 225.365 163.619 226.021 163.216C226.677 162.81 227.448 162.607 228.333 162.607C228.905 162.607 229.444 162.699 229.951 162.884C230.463 163.065 230.913 163.347 231.304 163.729C231.698 164.112 232.008 164.599 232.233 165.19C232.459 165.778 232.571 166.478 232.571 167.291V167.961H224.971V166.488H230.477C230.473 166.07 230.382 165.697 230.205 165.371C230.028 165.041 229.78 164.782 229.462 164.593C229.148 164.404 228.782 164.309 228.364 164.309C227.917 164.309 227.525 164.418 227.186 164.635C226.848 164.848 226.585 165.13 226.396 165.48C226.211 165.826 226.116 166.207 226.112 166.621V167.907C226.112 168.446 226.211 168.909 226.408 169.295C226.605 169.678 226.881 169.972 227.235 170.177C227.589 170.378 228.003 170.479 228.478 170.479C228.796 170.479 229.084 170.434 229.342 170.346C229.599 170.253 229.823 170.118 230.012 169.941C230.201 169.764 230.344 169.545 230.44 169.283L232.481 169.513C232.352 170.052 232.107 170.523 231.744 170.925C231.386 171.324 230.927 171.634 230.368 171.855C229.809 172.072 229.169 172.181 228.448 172.181ZM236.606 166.567V172H234.42V162.727H236.509V164.303H236.618C236.831 163.784 237.171 163.371 237.638 163.065C238.109 162.759 238.69 162.607 239.383 162.607C240.023 162.607 240.58 162.743 241.055 163.017C241.534 163.291 241.904 163.687 242.166 164.206C242.431 164.725 242.562 165.355 242.558 166.096V172H240.373V166.434C240.373 165.814 240.212 165.329 239.89 164.979C239.572 164.629 239.131 164.454 238.568 164.454C238.185 164.454 237.845 164.538 237.547 164.707C237.254 164.872 237.022 165.112 236.853 165.426C236.688 165.74 236.606 166.12 236.606 166.567ZM249.41 162.727V164.418H244.079V162.727H249.41ZM245.395 160.506H247.581V169.211C247.581 169.505 247.625 169.73 247.714 169.887C247.806 170.04 247.927 170.145 248.076 170.201C248.225 170.257 248.39 170.286 248.571 170.286C248.708 170.286 248.832 170.275 248.945 170.255C249.062 170.235 249.15 170.217 249.211 170.201L249.579 171.909C249.462 171.95 249.295 171.994 249.078 172.042C248.865 172.091 248.603 172.119 248.293 172.127C247.746 172.143 247.253 172.06 246.814 171.879C246.375 171.694 246.027 171.408 245.77 171.022C245.516 170.636 245.391 170.153 245.395 169.573V160.506ZM255.243 172.181C254.313 172.181 253.511 171.988 252.834 171.602C252.162 171.211 251.645 170.66 251.283 169.947C250.921 169.231 250.74 168.388 250.74 167.418C250.74 166.464 250.921 165.627 251.283 164.907C251.649 164.182 252.16 163.619 252.816 163.216C253.472 162.81 254.243 162.607 255.128 162.607C255.7 162.607 256.239 162.699 256.746 162.884C257.257 163.065 257.708 163.347 258.099 163.729C258.493 164.112 258.803 164.599 259.028 165.19C259.254 165.778 259.366 166.478 259.366 167.291V167.961H251.766V166.488H257.272C257.268 166.07 257.177 165.697 257 165.371C256.823 165.041 256.575 164.782 256.257 164.593C255.943 164.404 255.577 164.309 255.159 164.309C254.712 164.309 254.319 164.418 253.981 164.635C253.643 164.848 253.38 165.13 253.191 165.48C253.005 165.826 252.911 166.207 252.907 166.621V167.907C252.907 168.446 253.005 168.909 253.203 169.295C253.4 169.678 253.676 169.972 254.03 170.177C254.384 170.378 254.798 170.479 255.273 170.479C255.591 170.479 255.879 170.434 256.137 170.346C256.394 170.253 256.618 170.118 256.807 169.941C256.996 169.764 257.139 169.545 257.235 169.283L259.276 169.513C259.147 170.052 258.902 170.523 258.539 170.925C258.181 171.324 257.722 171.634 257.163 171.855C256.603 172.072 255.964 172.181 255.243 172.181ZM264.656 172.163C263.928 172.163 263.276 171.976 262.7 171.602C262.125 171.227 261.67 170.684 261.336 169.972C261.002 169.259 260.835 168.394 260.835 167.376C260.835 166.345 261.004 165.476 261.342 164.768C261.684 164.055 262.145 163.518 262.724 163.156C263.304 162.79 263.95 162.607 264.662 162.607C265.206 162.607 265.652 162.699 266.002 162.884C266.353 163.065 266.63 163.285 266.836 163.542C267.041 163.796 267.2 164.035 267.312 164.261H267.403V159.636H269.594V172H267.445V170.539H267.312C267.2 170.764 267.037 171.004 266.823 171.257C266.61 171.507 266.328 171.72 265.978 171.897C265.628 172.074 265.187 172.163 264.656 172.163ZM265.266 170.37C265.729 170.37 266.123 170.245 266.449 169.996C266.775 169.742 267.023 169.39 267.192 168.939C267.361 168.489 267.445 167.963 267.445 167.364C267.445 166.764 267.361 166.243 267.192 165.8C267.027 165.357 266.781 165.013 266.455 164.768C266.133 164.522 265.737 164.4 265.266 164.4C264.779 164.4 264.372 164.526 264.046 164.78C263.72 165.033 263.475 165.384 263.31 165.83C263.145 166.277 263.062 166.788 263.062 167.364C263.062 167.943 263.145 168.46 263.31 168.915C263.479 169.366 263.727 169.722 264.053 169.984C264.383 170.241 264.787 170.37 265.266 170.37ZM278.808 172.187C278.221 172.187 277.691 172.083 277.221 171.873C276.754 171.66 276.383 171.346 276.11 170.931C275.84 170.517 275.705 170.006 275.705 169.398C275.705 168.875 275.802 168.442 275.995 168.1C276.188 167.758 276.452 167.484 276.786 167.279C277.12 167.074 277.496 166.919 277.915 166.814C278.337 166.706 278.774 166.627 279.225 166.579C279.768 166.522 280.209 166.472 280.547 166.428C280.885 166.38 281.13 166.307 281.283 166.211C281.44 166.11 281.519 165.955 281.519 165.746V165.71C281.519 165.255 281.384 164.903 281.114 164.653C280.845 164.404 280.456 164.279 279.949 164.279C279.414 164.279 278.989 164.395 278.675 164.629C278.366 164.862 278.156 165.138 278.048 165.456L276.007 165.166C276.168 164.603 276.434 164.132 276.804 163.754C277.174 163.371 277.627 163.085 278.162 162.896C278.698 162.703 279.289 162.607 279.937 162.607C280.384 162.607 280.829 162.659 281.271 162.763C281.714 162.868 282.119 163.041 282.485 163.283C282.851 163.52 283.145 163.844 283.366 164.255C283.592 164.665 283.704 165.178 283.704 165.794V172H281.603V170.726H281.531C281.398 170.984 281.211 171.225 280.97 171.451C280.732 171.672 280.432 171.851 280.07 171.988C279.712 172.121 279.291 172.187 278.808 172.187ZM279.376 170.581C279.814 170.581 280.195 170.495 280.517 170.322C280.839 170.145 281.086 169.911 281.259 169.621C281.436 169.332 281.525 169.016 281.525 168.674V167.581C281.456 167.637 281.34 167.69 281.175 167.738C281.014 167.786 280.833 167.828 280.631 167.865C280.43 167.901 280.231 167.933 280.034 167.961C279.837 167.989 279.666 168.014 279.521 168.034C279.195 168.078 278.903 168.15 278.645 168.251C278.388 168.352 278.184 168.493 278.036 168.674C277.887 168.851 277.812 169.08 277.812 169.362C277.812 169.764 277.959 170.068 278.253 170.273C278.547 170.479 278.921 170.581 279.376 170.581ZM289.946 172.181C289.021 172.181 288.226 171.978 287.562 171.571C286.902 171.165 286.393 170.603 286.034 169.887C285.68 169.167 285.503 168.338 285.503 167.4C285.503 166.458 285.684 165.627 286.047 164.907C286.409 164.182 286.92 163.619 287.58 163.216C288.244 162.81 289.029 162.607 289.934 162.607C290.687 162.607 291.353 162.745 291.933 163.023C292.516 163.297 292.981 163.685 293.327 164.188C293.673 164.687 293.87 165.271 293.919 165.939H291.83C291.745 165.492 291.544 165.12 291.226 164.822C290.912 164.52 290.492 164.369 289.965 164.369C289.518 164.369 289.125 164.49 288.787 164.732C288.449 164.969 288.186 165.311 287.996 165.758C287.811 166.205 287.719 166.74 287.719 167.364C287.719 167.996 287.811 168.539 287.996 168.994C288.182 169.444 288.441 169.792 288.775 170.038C289.113 170.279 289.51 170.4 289.965 170.4C290.287 170.4 290.574 170.34 290.828 170.219C291.085 170.094 291.301 169.915 291.474 169.682C291.647 169.448 291.766 169.165 291.83 168.831H293.919C293.866 169.487 293.673 170.068 293.339 170.575C293.005 171.078 292.55 171.473 291.975 171.759C291.399 172.04 290.723 172.181 289.946 172.181ZM295.713 172V162.727H297.832V164.273H297.929C298.098 163.737 298.388 163.325 298.798 163.035C299.213 162.741 299.686 162.594 300.217 162.594C300.337 162.594 300.472 162.6 300.621 162.613C300.774 162.621 300.901 162.635 301.002 162.655V164.665C300.909 164.633 300.762 164.605 300.561 164.581C300.364 164.552 300.172 164.538 299.987 164.538C299.589 164.538 299.231 164.625 298.913 164.798C298.599 164.967 298.351 165.202 298.17 165.504C297.989 165.806 297.899 166.154 297.899 166.549V172H295.713ZM306.116 172.181C305.211 172.181 304.426 171.982 303.762 171.583C303.098 171.185 302.583 170.628 302.216 169.911C301.854 169.195 301.673 168.358 301.673 167.4C301.673 166.442 301.854 165.603 302.216 164.882C302.583 164.162 303.098 163.603 303.762 163.204C304.426 162.806 305.211 162.607 306.116 162.607C307.022 162.607 307.807 162.806 308.471 163.204C309.135 163.603 309.648 164.162 310.01 164.882C310.376 165.603 310.56 166.442 310.56 167.4C310.56 168.358 310.376 169.195 310.01 169.911C309.648 170.628 309.135 171.185 308.471 171.583C307.807 171.982 307.022 172.181 306.116 172.181ZM306.128 170.43C306.619 170.43 307.03 170.296 307.36 170.026C307.69 169.752 307.935 169.386 308.096 168.927C308.261 168.468 308.344 167.957 308.344 167.394C308.344 166.826 308.261 166.313 308.096 165.854C307.935 165.392 307.69 165.023 307.36 164.75C307.03 164.476 306.619 164.339 306.128 164.339C305.625 164.339 305.207 164.476 304.873 164.75C304.543 165.023 304.295 165.392 304.13 165.854C303.969 166.313 303.889 166.826 303.889 167.394C303.889 167.957 303.969 168.468 304.13 168.927C304.295 169.386 304.543 169.752 304.873 170.026C305.207 170.296 305.625 170.43 306.128 170.43ZM319.743 165.178L317.751 165.396C317.695 165.194 317.596 165.005 317.455 164.828C317.318 164.651 317.133 164.508 316.9 164.4C316.666 164.291 316.381 164.237 316.043 164.237C315.588 164.237 315.205 164.335 314.896 164.532C314.59 164.73 314.439 164.985 314.443 165.299C314.439 165.569 314.537 165.788 314.739 165.957C314.944 166.126 315.282 166.265 315.753 166.374L317.334 166.712C318.212 166.901 318.864 167.201 319.29 167.611C319.721 168.022 319.938 168.559 319.942 169.223C319.938 169.807 319.767 170.322 319.429 170.768C319.095 171.211 318.63 171.557 318.035 171.807C317.439 172.056 316.755 172.181 315.982 172.181C314.847 172.181 313.934 171.944 313.241 171.469C312.549 170.99 312.137 170.324 312.004 169.471L314.135 169.265C314.231 169.684 314.437 170 314.751 170.213C315.065 170.426 315.473 170.533 315.976 170.533C316.495 170.533 316.912 170.426 317.226 170.213C317.544 170 317.703 169.736 317.703 169.422C317.703 169.157 317.6 168.937 317.395 168.764C317.194 168.591 316.88 168.458 316.453 168.366L314.871 168.034C313.982 167.849 313.324 167.537 312.897 167.098C312.471 166.655 312.259 166.096 312.263 165.42C312.259 164.848 312.414 164.353 312.728 163.935C313.046 163.512 313.487 163.186 314.05 162.957C314.618 162.723 315.272 162.607 316.012 162.607C317.099 162.607 317.954 162.838 318.578 163.301C319.206 163.764 319.594 164.389 319.743 165.178ZM329.073 165.178L327.081 165.396C327.025 165.194 326.926 165.005 326.785 164.828C326.648 164.651 326.463 164.508 326.23 164.4C325.996 164.291 325.711 164.237 325.373 164.237C324.918 164.237 324.536 164.335 324.226 164.532C323.92 164.73 323.769 164.985 323.773 165.299C323.769 165.569 323.867 165.788 324.069 165.957C324.274 166.126 324.612 166.265 325.083 166.374L326.665 166.712C327.542 166.901 328.194 167.201 328.621 167.611C329.051 168.022 329.268 168.559 329.273 169.223C329.268 169.807 329.097 170.322 328.759 170.768C328.425 171.211 327.96 171.557 327.365 171.807C326.769 172.056 326.085 172.181 325.312 172.181C324.177 172.181 323.264 171.944 322.572 171.469C321.879 170.99 321.467 170.324 321.334 169.471L323.465 169.265C323.562 169.684 323.767 170 324.081 170.213C324.395 170.426 324.803 170.533 325.306 170.533C325.825 170.533 326.242 170.426 326.556 170.213C326.874 170 327.033 169.736 327.033 169.422C327.033 169.157 326.93 168.937 326.725 168.764C326.524 168.591 326.21 168.458 325.783 168.366L324.201 168.034C323.312 167.849 322.654 167.537 322.227 167.098C321.801 166.655 321.59 166.096 321.594 165.42C321.59 164.848 321.744 164.353 322.058 163.935C322.376 163.512 322.817 163.186 323.38 162.957C323.948 162.723 324.602 162.607 325.342 162.607C326.429 162.607 327.284 162.838 327.908 163.301C328.536 163.764 328.924 164.389 329.073 165.178ZM342.62 165.178L340.628 165.396C340.572 165.194 340.473 165.005 340.332 164.828C340.195 164.651 340.01 164.508 339.777 164.4C339.543 164.291 339.258 164.237 338.92 164.237C338.465 164.237 338.082 164.335 337.773 164.532C337.467 164.73 337.316 164.985 337.32 165.299C337.316 165.569 337.414 165.788 337.616 165.957C337.821 166.126 338.159 166.265 338.63 166.374L340.211 166.712C341.089 166.901 341.741 167.201 342.167 167.611C342.598 168.022 342.815 168.559 342.819 169.223C342.815 169.807 342.644 170.322 342.306 170.768C341.972 171.211 341.507 171.557 340.912 171.807C340.316 172.056 339.632 172.181 338.859 172.181C337.724 172.181 336.811 171.944 336.118 171.469C335.426 170.99 335.014 170.324 334.881 169.471L337.012 169.265C337.108 169.684 337.314 170 337.628 170.213C337.942 170.426 338.35 170.533 338.853 170.533C339.372 170.533 339.789 170.426 340.103 170.213C340.421 170 340.58 169.736 340.58 169.422C340.58 169.157 340.477 168.937 340.272 168.764C340.071 168.591 339.757 168.458 339.33 168.366L337.748 168.034C336.859 167.849 336.201 167.537 335.774 167.098C335.348 166.655 335.136 166.096 335.14 165.42C335.136 164.848 335.291 164.353 335.605 163.935C335.923 163.512 336.364 163.186 336.927 162.957C337.495 162.723 338.149 162.607 338.889 162.607C339.976 162.607 340.831 162.838 341.455 163.301C342.083 163.764 342.471 164.389 342.62 165.178ZM348.666 172.181C347.761 172.181 346.976 171.982 346.312 171.583C345.648 171.185 345.133 170.628 344.766 169.911C344.404 169.195 344.223 168.358 344.223 167.4C344.223 166.442 344.404 165.603 344.766 164.882C345.133 164.162 345.648 163.603 346.312 163.204C346.976 162.806 347.761 162.607 348.666 162.607C349.572 162.607 350.356 162.806 351.021 163.204C351.685 163.603 352.198 164.162 352.56 164.882C352.926 165.603 353.109 166.442 353.109 167.4C353.109 168.358 352.926 169.195 352.56 169.911C352.198 170.628 351.685 171.185 351.021 171.583C350.356 171.982 349.572 172.181 348.666 172.181ZM348.678 170.43C349.169 170.43 349.58 170.296 349.91 170.026C350.24 169.752 350.485 169.386 350.646 168.927C350.811 168.468 350.894 167.957 350.894 167.394C350.894 166.826 350.811 166.313 350.646 165.854C350.485 165.392 350.24 165.023 349.91 164.75C349.58 164.476 349.169 164.339 348.678 164.339C348.175 164.339 347.757 164.476 347.423 164.75C347.093 165.023 346.845 165.392 346.68 165.854C346.519 166.313 346.439 166.826 346.439 167.394C346.439 167.957 346.519 168.468 346.68 168.927C346.845 169.386 347.093 169.752 347.423 170.026C347.757 170.296 348.175 170.43 348.678 170.43ZM359.181 172V162.727H361.27V164.303H361.378C361.572 163.772 361.892 163.357 362.338 163.059C362.785 162.757 363.318 162.607 363.938 162.607C364.566 162.607 365.095 162.759 365.526 163.065C365.96 163.367 366.266 163.78 366.443 164.303H366.54C366.745 163.788 367.091 163.377 367.578 163.071C368.069 162.761 368.651 162.607 369.323 162.607C370.176 162.607 370.873 162.876 371.412 163.415C371.951 163.955 372.221 164.742 372.221 165.776V172H370.029V166.114C370.029 165.538 369.876 165.118 369.571 164.852C369.265 164.583 368.89 164.448 368.448 164.448C367.92 164.448 367.508 164.613 367.21 164.943C366.916 165.269 366.769 165.693 366.769 166.217V172H364.626V166.023C364.626 165.545 364.481 165.162 364.192 164.876C363.906 164.591 363.532 164.448 363.069 164.448C362.755 164.448 362.469 164.528 362.212 164.689C361.954 164.846 361.749 165.07 361.596 165.359C361.443 165.645 361.366 165.979 361.366 166.362V172H359.181ZM377.106 172.187C376.519 172.187 375.989 172.083 375.518 171.873C375.052 171.66 374.681 171.346 374.408 170.931C374.138 170.517 374.003 170.006 374.003 169.398C374.003 168.875 374.1 168.442 374.293 168.1C374.486 167.758 374.75 167.484 375.084 167.279C375.418 167.074 375.794 166.919 376.213 166.814C376.635 166.706 377.072 166.627 377.523 166.579C378.066 166.522 378.507 166.472 378.845 166.428C379.183 166.38 379.428 166.307 379.581 166.211C379.738 166.11 379.817 165.955 379.817 165.746V165.71C379.817 165.255 379.682 164.903 379.412 164.653C379.143 164.404 378.754 164.279 378.247 164.279C377.712 164.279 377.287 164.395 376.973 164.629C376.663 164.862 376.454 165.138 376.345 165.456L374.305 165.166C374.466 164.603 374.732 164.132 375.102 163.754C375.472 163.371 375.925 163.085 376.46 162.896C376.995 162.703 377.587 162.607 378.235 162.607C378.682 162.607 379.126 162.659 379.569 162.763C380.012 162.868 380.416 163.041 380.783 163.283C381.149 163.52 381.443 163.844 381.664 164.255C381.889 164.665 382.002 165.178 382.002 165.794V172H379.901V170.726H379.829C379.696 170.984 379.509 171.225 379.267 171.451C379.03 171.672 378.73 171.851 378.368 171.988C378.01 172.121 377.589 172.187 377.106 172.187ZM377.674 170.581C378.112 170.581 378.493 170.495 378.815 170.322C379.137 170.145 379.384 169.911 379.557 169.621C379.734 169.332 379.823 169.016 379.823 168.674V167.581C379.754 167.637 379.638 167.69 379.473 167.738C379.312 167.786 379.131 167.828 378.929 167.865C378.728 167.901 378.529 167.933 378.332 167.961C378.134 167.989 377.963 168.014 377.818 168.034C377.492 168.078 377.201 168.15 376.943 168.251C376.686 168.352 376.482 168.493 376.333 168.674C376.184 168.851 376.11 169.08 376.11 169.362C376.11 169.764 376.257 170.068 376.551 170.273C376.845 170.479 377.219 170.581 377.674 170.581ZM386.385 166.567V172H384.2V162.727H386.288V164.303H386.397C386.61 163.784 386.95 163.371 387.417 163.065C387.888 162.759 388.47 162.607 389.162 162.607C389.802 162.607 390.359 162.743 390.834 163.017C391.313 163.291 391.683 163.687 391.945 164.206C392.211 164.725 392.341 165.355 392.337 166.096V172H390.152V166.434C390.152 165.814 389.991 165.329 389.669 164.979C389.351 164.629 388.91 164.454 388.347 164.454C387.965 164.454 387.624 164.538 387.327 164.707C387.033 164.872 386.801 165.112 386.632 165.426C386.467 165.74 386.385 166.12 386.385 166.567ZM395.585 175.477C395.287 175.477 395.012 175.453 394.758 175.405C394.509 175.361 394.309 175.308 394.16 175.248L394.668 173.545C394.986 173.638 395.269 173.682 395.519 173.678C395.768 173.674 395.988 173.596 396.177 173.443C396.37 173.294 396.533 173.044 396.666 172.694L396.853 172.193L393.49 162.727H395.809L397.946 169.73H398.042L400.185 162.727H402.51L398.797 173.123C398.624 173.614 398.394 174.034 398.109 174.385C397.823 174.739 397.473 175.008 397.058 175.194C396.648 175.383 396.157 175.477 395.585 175.477ZM412.869 162.727V164.418H407.538V162.727H412.869ZM408.854 160.506H411.04V169.211C411.04 169.505 411.084 169.73 411.173 169.887C411.265 170.04 411.386 170.145 411.535 170.201C411.684 170.257 411.849 170.286 412.03 170.286C412.167 170.286 412.291 170.275 412.404 170.255C412.521 170.235 412.609 170.217 412.67 170.201L413.038 171.909C412.921 171.95 412.754 171.994 412.537 172.042C412.324 172.091 412.062 172.119 411.752 172.127C411.205 172.143 410.712 172.06 410.273 171.879C409.834 171.694 409.486 171.408 409.229 171.022C408.975 170.636 408.85 170.153 408.854 169.573V160.506ZM418.642 172.181C417.736 172.181 416.951 171.982 416.287 171.583C415.623 171.185 415.108 170.628 414.742 169.911C414.38 169.195 414.199 168.358 414.199 167.4C414.199 166.442 414.38 165.603 414.742 164.882C415.108 164.162 415.623 163.603 416.287 163.204C416.951 162.806 417.736 162.607 418.642 162.607C419.547 162.607 420.332 162.806 420.996 163.204C421.66 163.603 422.173 164.162 422.536 164.882C422.902 165.603 423.085 166.442 423.085 167.4C423.085 168.358 422.902 169.195 422.536 169.911C422.173 170.628 421.66 171.185 420.996 171.583C420.332 171.982 419.547 172.181 418.642 172.181ZM418.654 170.43C419.145 170.43 419.555 170.296 419.885 170.026C420.215 169.752 420.461 169.386 420.622 168.927C420.787 168.468 420.869 167.957 420.869 167.394C420.869 166.826 420.787 166.313 420.622 165.854C420.461 165.392 420.215 165.023 419.885 164.75C419.555 164.476 419.145 164.339 418.654 164.339C418.151 164.339 417.732 164.476 417.398 164.75C417.068 165.023 416.821 165.392 416.656 165.854C416.495 166.313 416.414 166.826 416.414 167.394C416.414 167.957 416.495 168.468 416.656 168.927C416.821 169.386 417.068 169.752 417.398 170.026C417.732 170.296 418.151 170.43 418.654 170.43ZM428.985 172.181C428.079 172.181 427.294 171.982 426.63 171.583C425.966 171.185 425.451 170.628 425.085 169.911C424.722 169.195 424.541 168.358 424.541 167.4C424.541 166.442 424.722 165.603 425.085 164.882C425.451 164.162 425.966 163.603 426.63 163.204C427.294 162.806 428.079 162.607 428.985 162.607C429.89 162.607 430.675 162.806 431.339 163.204C432.003 163.603 432.516 164.162 432.878 164.882C433.245 165.603 433.428 166.442 433.428 167.4C433.428 168.358 433.245 169.195 432.878 169.911C432.516 170.628 432.003 171.185 431.339 171.583C430.675 171.982 429.89 172.181 428.985 172.181ZM428.997 170.43C429.488 170.43 429.898 170.296 430.228 170.026C430.558 169.752 430.804 169.386 430.965 168.927C431.13 168.468 431.212 167.957 431.212 167.394C431.212 166.826 431.13 166.313 430.965 165.854C430.804 165.392 430.558 165.023 430.228 164.75C429.898 164.476 429.488 164.339 428.997 164.339C428.494 164.339 428.075 164.476 427.741 164.75C427.411 165.023 427.163 165.392 426.998 165.854C426.837 166.313 426.757 166.826 426.757 167.394C426.757 167.957 426.837 168.468 426.998 168.927C427.163 169.386 427.411 169.752 427.741 170.026C428.075 170.296 428.494 170.43 428.997 170.43ZM437.468 159.636V172H435.283V159.636H437.468ZM447.044 165.178L445.052 165.396C444.995 165.194 444.897 165.005 444.756 164.828C444.619 164.651 444.434 164.508 444.201 164.4C443.967 164.291 443.681 164.237 443.343 164.237C442.889 164.237 442.506 164.335 442.196 164.532C441.89 164.73 441.74 164.985 441.744 165.299C441.74 165.569 441.838 165.788 442.039 165.957C442.245 166.126 442.583 166.265 443.054 166.374L444.635 166.712C445.513 166.901 446.165 167.201 446.591 167.611C447.022 168.022 447.239 168.559 447.243 169.223C447.239 169.807 447.068 170.322 446.73 170.768C446.396 171.211 445.931 171.557 445.336 171.807C444.74 172.056 444.056 172.181 443.283 172.181C442.148 172.181 441.234 171.944 440.542 171.469C439.85 170.99 439.437 170.324 439.305 169.471L441.436 169.265C441.532 169.684 441.738 170 442.051 170.213C442.365 170.426 442.774 170.533 443.277 170.533C443.796 170.533 444.213 170.426 444.527 170.213C444.845 170 445.004 169.736 445.004 169.422C445.004 169.157 444.901 168.937 444.696 168.764C444.494 168.591 444.18 168.458 443.754 168.366L442.172 168.034C441.283 167.849 440.625 167.537 440.198 167.098C439.771 166.655 439.56 166.096 439.564 165.42C439.56 164.848 439.715 164.353 440.029 163.935C440.347 163.512 440.788 163.186 441.351 162.957C441.919 162.723 442.573 162.607 443.313 162.607C444.4 162.607 445.255 162.838 445.879 163.301C446.507 163.764 446.895 164.389 447.044 165.178ZM166.146 190.727H168.332V200.531C168.332 201.199 168.205 201.751 167.951 202.185C167.698 202.62 167.332 202.944 166.853 203.157C166.374 203.371 165.792 203.477 165.108 203.477C165.027 203.477 164.953 203.475 164.885 203.471C164.816 203.471 164.742 203.469 164.661 203.465V201.684C164.722 201.688 164.776 201.69 164.824 201.69C164.873 201.694 164.923 201.696 164.975 201.696C165.394 201.696 165.694 201.594 165.875 201.388C166.056 201.187 166.146 200.891 166.146 200.501V190.727ZM167.233 189.411C166.883 189.411 166.583 189.297 166.333 189.067C166.088 188.834 165.965 188.554 165.965 188.228C165.965 187.898 166.088 187.618 166.333 187.389C166.583 187.155 166.883 187.039 167.233 187.039C167.579 187.039 167.875 187.155 168.12 187.389C168.37 187.618 168.495 187.898 168.495 188.228C168.495 188.554 168.37 188.834 168.12 189.067C167.875 189.297 167.579 189.411 167.233 189.411ZM176.489 196.1V190.727H178.674V200H176.555V198.352H176.459C176.25 198.871 175.906 199.296 175.427 199.626C174.952 199.956 174.366 200.121 173.67 200.121C173.062 200.121 172.525 199.986 172.058 199.716C171.595 199.443 171.233 199.046 170.971 198.527C170.71 198.004 170.579 197.372 170.579 196.631V190.727H172.764V196.293C172.764 196.881 172.925 197.348 173.247 197.694C173.569 198.04 173.992 198.213 174.515 198.213C174.837 198.213 175.149 198.135 175.451 197.978C175.753 197.821 176 197.587 176.193 197.277C176.39 196.963 176.489 196.571 176.489 196.1ZM188.251 193.178L186.258 193.396C186.202 193.194 186.103 193.005 185.963 192.828C185.826 192.651 185.641 192.508 185.407 192.4C185.174 192.291 184.888 192.237 184.55 192.237C184.095 192.237 183.713 192.335 183.403 192.532C183.097 192.73 182.946 192.985 182.95 193.299C182.946 193.569 183.045 193.788 183.246 193.957C183.451 194.126 183.789 194.265 184.26 194.374L185.842 194.712C186.719 194.901 187.371 195.201 187.798 195.611C188.228 196.022 188.446 196.559 188.45 197.223C188.446 197.807 188.275 198.322 187.937 198.768C187.603 199.211 187.138 199.557 186.542 199.807C185.946 200.056 185.262 200.181 184.49 200.181C183.355 200.181 182.441 199.944 181.749 199.469C181.057 198.99 180.644 198.324 180.511 197.471L182.642 197.265C182.739 197.684 182.944 198 183.258 198.213C183.572 198.426 183.98 198.533 184.483 198.533C185.003 198.533 185.419 198.426 185.733 198.213C186.051 198 186.21 197.736 186.21 197.422C186.21 197.157 186.107 196.937 185.902 196.764C185.701 196.591 185.387 196.458 184.96 196.366L183.379 196.034C182.489 195.849 181.831 195.537 181.405 195.098C180.978 194.655 180.767 194.096 180.771 193.42C180.767 192.848 180.922 192.353 181.236 191.935C181.554 191.512 181.994 191.186 182.558 190.957C183.125 190.723 183.779 190.607 184.52 190.607C185.606 190.607 186.462 190.838 187.085 191.301C187.713 191.764 188.102 192.389 188.251 193.178ZM194.882 190.727V192.418H189.551V190.727H194.882ZM190.868 188.506H193.053V197.211C193.053 197.505 193.097 197.73 193.186 197.887C193.278 198.04 193.399 198.145 193.548 198.201C193.697 198.257 193.862 198.286 194.043 198.286C194.18 198.286 194.305 198.275 194.417 198.255C194.534 198.235 194.623 198.217 194.683 198.201L195.051 199.909C194.934 199.95 194.767 199.994 194.55 200.042C194.337 200.091 194.075 200.119 193.765 200.127C193.218 200.143 192.725 200.06 192.286 199.879C191.848 199.694 191.499 199.408 191.242 199.022C190.988 198.636 190.864 198.153 190.868 197.573V188.506ZM205.557 190.727V192.418H200.226V190.727H205.557ZM201.542 188.506H203.728V197.211C203.728 197.505 203.772 197.73 203.861 197.887C203.953 198.04 204.074 198.145 204.223 198.201C204.372 198.257 204.537 198.286 204.718 198.286C204.855 198.286 204.979 198.275 205.092 198.255C205.209 198.235 205.297 198.217 205.358 198.201L205.726 199.909C205.609 199.95 205.442 199.994 205.225 200.042C205.012 200.091 204.75 200.119 204.44 200.127C203.893 200.143 203.4 200.06 202.961 199.879C202.522 199.694 202.174 199.408 201.917 199.022C201.663 198.636 201.538 198.153 201.542 197.573V188.506ZM211.33 200.181C210.424 200.181 209.639 199.982 208.975 199.583C208.311 199.185 207.796 198.628 207.43 197.911C207.068 197.195 206.887 196.358 206.887 195.4C206.887 194.442 207.068 193.603 207.43 192.882C207.796 192.162 208.311 191.603 208.975 191.204C209.639 190.806 210.424 190.607 211.33 190.607C212.235 190.607 213.02 190.806 213.684 191.204C214.348 191.603 214.861 192.162 215.224 192.882C215.59 193.603 215.773 194.442 215.773 195.4C215.773 196.358 215.59 197.195 215.224 197.911C214.861 198.628 214.348 199.185 213.684 199.583C213.02 199.982 212.235 200.181 211.33 200.181ZM211.342 198.43C211.833 198.43 212.243 198.296 212.573 198.026C212.903 197.752 213.149 197.386 213.31 196.927C213.475 196.468 213.557 195.957 213.557 195.394C213.557 194.826 213.475 194.313 213.31 193.854C213.149 193.392 212.903 193.023 212.573 192.75C212.243 192.476 211.833 192.339 211.342 192.339C210.839 192.339 210.42 192.476 210.086 192.75C209.756 193.023 209.509 193.392 209.344 193.854C209.183 194.313 209.102 194.826 209.102 195.394C209.102 195.957 209.183 196.468 209.344 196.927C209.509 197.386 209.756 197.752 210.086 198.026C210.42 198.296 210.839 198.43 211.342 198.43ZM224.03 187.636V200H221.845V187.636H224.03ZM230.382 200.181C229.453 200.181 228.65 199.988 227.974 199.602C227.301 199.211 226.784 198.66 226.422 197.947C226.06 197.231 225.879 196.388 225.879 195.418C225.879 194.464 226.06 193.627 226.422 192.907C226.788 192.182 227.299 191.619 227.955 191.216C228.611 190.81 229.382 190.607 230.268 190.607C230.839 190.607 231.378 190.699 231.885 190.884C232.397 191.065 232.847 191.347 233.238 191.729C233.632 192.112 233.942 192.599 234.167 193.19C234.393 193.778 234.506 194.478 234.506 195.291V195.961H226.905V194.488H232.411C232.407 194.07 232.316 193.697 232.139 193.371C231.962 193.041 231.714 192.782 231.396 192.593C231.083 192.404 230.716 192.309 230.298 192.309C229.851 192.309 229.459 192.418 229.121 192.635C228.782 192.848 228.519 193.13 228.33 193.48C228.145 193.826 228.05 194.207 228.046 194.621V195.907C228.046 196.446 228.145 196.909 228.342 197.295C228.539 197.678 228.815 197.972 229.169 198.177C229.523 198.378 229.938 198.479 230.412 198.479C230.73 198.479 231.018 198.434 231.276 198.346C231.533 198.253 231.757 198.118 231.946 197.941C232.135 197.764 232.278 197.545 232.374 197.283L234.415 197.513C234.286 198.052 234.041 198.523 233.678 198.925C233.32 199.324 232.861 199.634 232.302 199.855C231.743 200.072 231.103 200.181 230.382 200.181ZM239.023 200.187C238.435 200.187 237.906 200.083 237.435 199.873C236.968 199.66 236.598 199.346 236.324 198.931C236.054 198.517 235.92 198.006 235.92 197.398C235.92 196.875 236.016 196.442 236.209 196.1C236.403 195.758 236.666 195.484 237 195.279C237.334 195.074 237.711 194.919 238.129 194.814C238.552 194.706 238.988 194.627 239.439 194.579C239.983 194.522 240.423 194.472 240.761 194.428C241.099 194.38 241.345 194.307 241.498 194.211C241.655 194.11 241.733 193.955 241.733 193.746V193.71C241.733 193.255 241.598 192.903 241.329 192.653C241.059 192.404 240.671 192.279 240.164 192.279C239.628 192.279 239.204 192.395 238.89 192.629C238.58 192.862 238.371 193.138 238.262 193.456L236.222 193.166C236.382 192.603 236.648 192.132 237.018 191.754C237.389 191.371 237.841 191.085 238.377 190.896C238.912 190.703 239.504 190.607 240.152 190.607C240.598 190.607 241.043 190.659 241.486 190.763C241.928 190.868 242.333 191.041 242.699 191.283C243.065 191.52 243.359 191.844 243.581 192.255C243.806 192.665 243.919 193.178 243.919 193.794V200H241.818V198.726H241.745C241.612 198.984 241.425 199.225 241.184 199.451C240.946 199.672 240.647 199.851 240.284 199.988C239.926 200.121 239.506 200.187 239.023 200.187ZM239.59 198.581C240.029 198.581 240.409 198.495 240.731 198.322C241.053 198.145 241.301 197.911 241.474 197.621C241.651 197.332 241.739 197.016 241.739 196.674V195.581C241.671 195.637 241.554 195.69 241.389 195.738C241.228 195.786 241.047 195.828 240.846 195.865C240.645 195.901 240.445 195.933 240.248 195.961C240.051 195.989 239.88 196.014 239.735 196.034C239.409 196.078 239.117 196.15 238.86 196.251C238.602 196.352 238.399 196.493 238.25 196.674C238.101 196.851 238.027 197.08 238.027 197.362C238.027 197.764 238.173 198.068 238.467 198.273C238.761 198.479 239.135 198.581 239.59 198.581ZM246.116 200V190.727H248.235V192.273H248.332C248.501 191.737 248.79 191.325 249.201 191.035C249.615 190.741 250.088 190.594 250.62 190.594C250.74 190.594 250.875 190.6 251.024 190.613C251.177 190.621 251.304 190.635 251.404 190.655V192.665C251.312 192.633 251.165 192.605 250.964 192.581C250.766 192.552 250.575 192.538 250.39 192.538C249.992 192.538 249.634 192.625 249.316 192.798C249.002 192.967 248.754 193.202 248.573 193.504C248.392 193.806 248.301 194.154 248.301 194.549V200H246.116ZM255.042 194.567V200H252.856V190.727H254.945V192.303H255.054C255.267 191.784 255.607 191.371 256.074 191.065C256.545 190.759 257.126 190.607 257.819 190.607C258.459 190.607 259.016 190.743 259.491 191.017C259.97 191.291 260.34 191.687 260.602 192.206C260.867 192.725 260.998 193.355 260.994 194.096V200H258.809V194.434C258.809 193.814 258.648 193.329 258.326 192.979C258.008 192.629 257.567 192.454 257.004 192.454C256.621 192.454 256.281 192.538 255.983 192.707C255.69 192.872 255.458 193.112 255.289 193.426C255.124 193.74 255.042 194.12 255.042 194.567ZM270.101 200.187C269.513 200.187 268.984 200.083 268.513 199.873C268.046 199.66 267.676 199.346 267.402 198.931C267.133 198.517 266.998 198.006 266.998 197.398C266.998 196.875 267.094 196.442 267.288 196.1C267.481 195.758 267.744 195.484 268.078 195.279C268.412 195.074 268.789 194.919 269.207 194.814C269.63 194.706 270.067 194.627 270.517 194.579C271.061 194.522 271.501 194.472 271.839 194.428C272.177 194.38 272.423 194.307 272.576 194.211C272.733 194.11 272.811 193.955 272.811 193.746V193.71C272.811 193.255 272.677 192.903 272.407 192.653C272.137 192.404 271.749 192.279 271.242 192.279C270.706 192.279 270.282 192.395 269.968 192.629C269.658 192.862 269.449 193.138 269.34 193.456L267.3 193.166C267.461 192.603 267.726 192.132 268.097 191.754C268.467 191.371 268.92 191.085 269.455 190.896C269.99 190.703 270.582 190.607 271.23 190.607C271.676 190.607 272.121 190.659 272.564 190.763C273.007 190.868 273.411 191.041 273.777 191.283C274.143 191.52 274.437 191.844 274.659 192.255C274.884 192.665 274.997 193.178 274.997 193.794V200H272.896V198.726H272.823C272.691 198.984 272.503 199.225 272.262 199.451C272.025 199.672 271.725 199.851 271.362 199.988C271.004 200.121 270.584 200.187 270.101 200.187ZM270.668 198.581C271.107 198.581 271.487 198.495 271.809 198.322C272.131 198.145 272.379 197.911 272.552 197.621C272.729 197.332 272.817 197.016 272.817 196.674V195.581C272.749 195.637 272.632 195.69 272.467 195.738C272.306 195.786 272.125 195.828 271.924 195.865C271.723 195.901 271.523 195.933 271.326 195.961C271.129 195.989 270.958 196.014 270.813 196.034C270.487 196.078 270.195 196.15 269.938 196.251C269.68 196.352 269.477 196.493 269.328 196.674C269.179 196.851 269.105 197.08 269.105 197.362C269.105 197.764 269.252 198.068 269.545 198.273C269.839 198.479 270.213 198.581 270.668 198.581ZM277.291 200V187.636H279.476V192.261H279.567C279.679 192.035 279.838 191.796 280.044 191.542C280.249 191.285 280.527 191.065 280.877 190.884C281.227 190.699 281.674 190.607 282.217 190.607C282.933 190.607 283.579 190.79 284.155 191.156C284.734 191.518 285.193 192.055 285.531 192.768C285.873 193.476 286.044 194.345 286.044 195.376C286.044 196.394 285.877 197.259 285.543 197.972C285.209 198.684 284.754 199.227 284.179 199.602C283.603 199.976 282.951 200.163 282.223 200.163C281.692 200.163 281.251 200.074 280.901 199.897C280.551 199.72 280.269 199.507 280.056 199.257C279.846 199.004 279.683 198.764 279.567 198.539H279.44V200H277.291ZM279.434 195.364C279.434 195.963 279.518 196.489 279.687 196.939C279.86 197.39 280.108 197.742 280.43 197.996C280.756 198.245 281.15 198.37 281.613 198.37C282.096 198.37 282.501 198.241 282.827 197.984C283.153 197.722 283.398 197.366 283.563 196.915C283.732 196.46 283.817 195.943 283.817 195.364C283.817 194.788 283.734 194.277 283.569 193.83C283.404 193.384 283.159 193.033 282.833 192.78C282.507 192.526 282.1 192.4 281.613 192.4C281.146 192.4 280.75 192.522 280.424 192.768C280.098 193.013 279.85 193.357 279.681 193.8C279.516 194.243 279.434 194.764 279.434 195.364ZM291.947 200.181C291.041 200.181 290.257 199.982 289.593 199.583C288.928 199.185 288.413 198.628 288.047 197.911C287.685 197.195 287.504 196.358 287.504 195.4C287.504 194.442 287.685 193.603 288.047 192.882C288.413 192.162 288.928 191.603 289.593 191.204C290.257 190.806 291.041 190.607 291.947 190.607C292.852 190.607 293.637 190.806 294.301 191.204C294.965 191.603 295.479 192.162 295.841 192.882C296.207 193.603 296.39 194.442 296.39 195.4C296.39 196.358 296.207 197.195 295.841 197.911C295.479 198.628 294.965 199.185 294.301 199.583C293.637 199.982 292.852 200.181 291.947 200.181ZM291.959 198.43C292.45 198.43 292.86 198.296 293.191 198.026C293.521 197.752 293.766 197.386 293.927 196.927C294.092 196.468 294.175 195.957 294.175 195.394C294.175 194.826 294.092 194.313 293.927 193.854C293.766 193.392 293.521 193.023 293.191 192.75C292.86 192.476 292.45 192.339 291.959 192.339C291.456 192.339 291.037 192.476 290.703 192.75C290.373 193.023 290.126 193.392 289.961 193.854C289.8 194.313 289.719 194.826 289.719 195.394C289.719 195.957 289.8 196.468 289.961 196.927C290.126 197.386 290.373 197.752 290.703 198.026C291.037 198.296 291.456 198.43 291.959 198.43ZM304.155 196.1V190.727H306.34V200H304.222V198.352H304.125C303.916 198.871 303.572 199.296 303.093 199.626C302.618 199.956 302.032 200.121 301.336 200.121C300.728 200.121 300.191 199.986 299.724 199.716C299.261 199.443 298.899 199.046 298.637 198.527C298.376 198.004 298.245 197.372 298.245 196.631V190.727H300.43V196.293C300.43 196.881 300.591 197.348 300.913 197.694C301.235 198.04 301.658 198.213 302.181 198.213C302.503 198.213 302.815 198.135 303.117 197.978C303.419 197.821 303.666 197.587 303.859 197.277C304.056 196.963 304.155 196.571 304.155 196.1ZM313.218 190.727V192.418H307.887V190.727H313.218ZM309.203 188.506H311.389V197.211C311.389 197.505 311.433 197.73 311.522 197.887C311.614 198.04 311.735 198.145 311.884 198.201C312.033 198.257 312.198 198.286 312.379 198.286C312.516 198.286 312.641 198.275 312.753 198.255C312.87 198.235 312.958 198.217 313.019 198.201L313.387 199.909C313.27 199.95 313.103 199.994 312.886 200.042C312.673 200.091 312.411 200.119 312.101 200.127C311.554 200.143 311.061 200.06 310.622 199.879C310.183 199.694 309.835 199.408 309.578 199.022C309.324 198.636 309.199 198.153 309.203 197.573V188.506ZM323.307 200.181C322.382 200.181 321.587 199.978 320.923 199.571C320.263 199.165 319.754 198.603 319.395 197.887C319.041 197.167 318.864 196.338 318.864 195.4C318.864 194.458 319.045 193.627 319.407 192.907C319.77 192.182 320.281 191.619 320.941 191.216C321.605 190.81 322.39 190.607 323.295 190.607C324.048 190.607 324.714 190.745 325.293 191.023C325.877 191.297 326.342 191.685 326.688 192.188C327.034 192.687 327.231 193.271 327.28 193.939H325.191C325.106 193.492 324.905 193.12 324.587 192.822C324.273 192.52 323.853 192.369 323.325 192.369C322.879 192.369 322.486 192.49 322.148 192.732C321.81 192.969 321.546 193.311 321.357 193.758C321.172 194.205 321.08 194.74 321.08 195.364C321.08 195.996 321.172 196.539 321.357 196.994C321.542 197.444 321.802 197.792 322.136 198.038C322.474 198.279 322.871 198.4 323.325 198.4C323.647 198.4 323.935 198.34 324.189 198.219C324.446 198.094 324.662 197.915 324.835 197.682C325.008 197.448 325.126 197.165 325.191 196.831H327.28C327.227 197.487 327.034 198.068 326.7 198.575C326.366 199.078 325.911 199.473 325.336 199.759C324.76 200.04 324.084 200.181 323.307 200.181ZM334.984 196.1V190.727H337.17V200H335.051V198.352H334.954C334.745 198.871 334.401 199.296 333.922 199.626C333.447 199.956 332.861 200.121 332.165 200.121C331.557 200.121 331.02 199.986 330.553 199.716C330.09 199.443 329.728 199.046 329.466 198.527C329.205 198.004 329.074 197.372 329.074 196.631V190.727H331.259V196.293C331.259 196.881 331.42 197.348 331.742 197.694C332.064 198.04 332.487 198.213 333.01 198.213C333.332 198.213 333.644 198.135 333.946 197.978C334.248 197.821 334.495 197.587 334.688 197.277C334.886 196.963 334.984 196.571 334.984 196.1ZM346.746 193.178L344.753 193.396C344.697 193.194 344.599 193.005 344.458 192.828C344.321 192.651 344.136 192.508 343.902 192.4C343.669 192.291 343.383 192.237 343.045 192.237C342.59 192.237 342.208 192.335 341.898 192.532C341.592 192.73 341.441 192.985 341.445 193.299C341.441 193.569 341.54 193.788 341.741 193.957C341.946 194.126 342.284 194.265 342.755 194.374L344.337 194.712C345.214 194.901 345.866 195.201 346.293 195.611C346.724 196.022 346.941 196.559 346.945 197.223C346.941 197.807 346.77 198.322 346.432 198.768C346.098 199.211 345.633 199.557 345.037 199.807C344.442 200.056 343.757 200.181 342.985 200.181C341.85 200.181 340.936 199.944 340.244 199.469C339.552 198.99 339.139 198.324 339.006 197.471L341.137 197.265C341.234 197.684 341.439 198 341.753 198.213C342.067 198.426 342.476 198.533 342.979 198.533C343.498 198.533 343.914 198.426 344.228 198.213C344.546 198 344.705 197.736 344.705 197.422C344.705 197.157 344.603 196.937 344.397 196.764C344.196 196.591 343.882 196.458 343.456 196.366L341.874 196.034C340.984 195.849 340.326 195.537 339.9 195.098C339.473 194.655 339.262 194.096 339.266 193.42C339.262 192.848 339.417 192.353 339.731 191.935C340.049 191.512 340.489 191.186 341.053 190.957C341.62 190.723 342.274 190.607 343.015 190.607C344.101 190.607 344.957 190.838 345.581 191.301C346.208 191.764 346.597 192.389 346.746 193.178ZM353.377 190.727V192.418H348.047V190.727H353.377ZM349.363 188.506H351.548V197.211C351.548 197.505 351.592 197.73 351.681 197.887C351.773 198.04 351.894 198.145 352.043 198.201C352.192 198.257 352.357 198.286 352.538 198.286C352.675 198.286 352.8 198.275 352.912 198.255C353.029 198.235 353.118 198.217 353.178 198.201L353.546 199.909C353.43 199.95 353.263 199.994 353.045 200.042C352.832 200.091 352.57 200.119 352.26 200.127C351.713 200.143 351.22 200.06 350.781 199.879C350.343 199.694 349.995 199.408 349.737 199.022C349.483 198.636 349.359 198.153 349.363 197.573V188.506ZM359.15 200.181C358.244 200.181 357.46 199.982 356.796 199.583C356.132 199.185 355.616 198.628 355.25 197.911C354.888 197.195 354.707 196.358 354.707 195.4C354.707 194.442 354.888 193.603 355.25 192.882C355.616 192.162 356.132 191.603 356.796 191.204C357.46 190.806 358.244 190.607 359.15 190.607C360.056 190.607 360.84 190.806 361.504 191.204C362.169 191.603 362.682 192.162 363.044 192.882C363.41 193.603 363.593 194.442 363.593 195.4C363.593 196.358 363.41 197.195 363.044 197.911C362.682 198.628 362.169 199.185 361.504 199.583C360.84 199.982 360.056 200.181 359.15 200.181ZM359.162 198.43C359.653 198.43 360.064 198.296 360.394 198.026C360.724 197.752 360.969 197.386 361.13 196.927C361.295 196.468 361.378 195.957 361.378 195.394C361.378 194.826 361.295 194.313 361.13 193.854C360.969 193.392 360.724 193.023 360.394 192.75C360.064 192.476 359.653 192.339 359.162 192.339C358.659 192.339 358.24 192.476 357.906 192.75C357.576 193.023 357.329 193.392 357.164 193.854C357.003 194.313 356.922 194.826 356.922 195.394C356.922 195.957 357.003 196.468 357.164 196.927C357.329 197.386 357.576 197.752 357.906 198.026C358.24 198.296 358.659 198.43 359.162 198.43ZM365.448 200V190.727H367.537V192.303H367.646C367.839 191.772 368.159 191.357 368.605 191.059C369.052 190.757 369.585 190.607 370.205 190.607C370.833 190.607 371.362 190.759 371.793 191.065C372.228 191.367 372.533 191.78 372.71 192.303H372.807C373.012 191.788 373.358 191.377 373.845 191.071C374.336 190.761 374.918 190.607 375.59 190.607C376.443 190.607 377.14 190.876 377.679 191.415C378.218 191.955 378.488 192.742 378.488 193.776V200H376.296V194.114C376.296 193.538 376.143 193.118 375.838 192.852C375.532 192.583 375.157 192.448 374.715 192.448C374.188 192.448 373.775 192.613 373.477 192.943C373.183 193.269 373.036 193.693 373.036 194.217V200H370.893V194.023C370.893 193.545 370.748 193.162 370.459 192.876C370.173 192.591 369.799 192.448 369.336 192.448C369.022 192.448 368.736 192.528 368.479 192.689C368.221 192.846 368.016 193.07 367.863 193.359C367.71 193.645 367.633 193.979 367.633 194.362V200H365.448ZM384.81 200.181C383.88 200.181 383.077 199.988 382.401 199.602C381.729 199.211 381.212 198.66 380.85 197.947C380.488 197.231 380.306 196.388 380.306 195.418C380.306 194.464 380.488 193.627 380.85 192.907C381.216 192.182 381.727 191.619 382.383 191.216C383.039 190.81 383.81 190.607 384.695 190.607C385.267 190.607 385.806 190.699 386.313 190.884C386.824 191.065 387.275 191.347 387.665 191.729C388.06 192.112 388.37 192.599 388.595 193.19C388.821 193.778 388.933 194.478 388.933 195.291V195.961H381.333V194.488H386.838C386.834 194.07 386.744 193.697 386.567 193.371C386.39 193.041 386.142 192.782 385.824 192.593C385.51 192.404 385.144 192.309 384.725 192.309C384.279 192.309 383.886 192.418 383.548 192.635C383.21 192.848 382.947 193.13 382.757 193.48C382.572 193.826 382.478 194.207 382.474 194.621V195.907C382.474 196.446 382.572 196.909 382.77 197.295C382.967 197.678 383.242 197.972 383.597 198.177C383.951 198.378 384.365 198.479 384.84 198.479C385.158 198.479 385.446 198.434 385.703 198.346C385.961 198.253 386.184 198.118 386.374 197.941C386.563 197.764 386.706 197.545 386.802 197.283L388.843 197.513C388.714 198.052 388.468 198.523 388.106 198.925C387.748 199.324 387.289 199.634 386.73 199.855C386.17 200.072 385.53 200.181 384.81 200.181ZM390.782 200V190.727H392.901V192.273H392.998C393.167 191.737 393.456 191.325 393.867 191.035C394.281 190.741 394.754 190.594 395.286 190.594C395.406 190.594 395.541 190.6 395.69 190.613C395.843 190.621 395.97 190.635 396.07 190.655V192.665C395.978 192.633 395.831 192.605 395.63 192.581C395.432 192.552 395.241 192.538 395.056 192.538C394.658 192.538 394.3 192.625 393.982 192.798C393.668 192.967 393.42 193.202 393.239 193.504C393.058 193.806 392.967 194.154 392.967 194.549V200H390.782ZM404.851 193.178L402.859 193.396C402.803 193.194 402.704 193.005 402.563 192.828C402.426 192.651 402.241 192.508 402.008 192.4C401.774 192.291 401.489 192.237 401.15 192.237C400.696 192.237 400.313 192.335 400.003 192.532C399.698 192.73 399.547 192.985 399.551 193.299C399.547 193.569 399.645 193.788 399.847 193.957C400.052 194.126 400.39 194.265 400.861 194.374L402.442 194.712C403.32 194.901 403.972 195.201 404.398 195.611C404.829 196.022 405.046 196.559 405.05 197.223C405.046 197.807 404.875 198.322 404.537 198.768C404.203 199.211 403.738 199.557 403.143 199.807C402.547 200.056 401.863 200.181 401.09 200.181C399.955 200.181 399.042 199.944 398.349 199.469C397.657 198.99 397.245 198.324 397.112 197.471L399.243 197.265C399.339 197.684 399.545 198 399.859 198.213C400.172 198.426 400.581 198.533 401.084 198.533C401.603 198.533 402.02 198.426 402.334 198.213C402.652 198 402.811 197.736 402.811 197.422C402.811 197.157 402.708 196.937 402.503 196.764C402.302 196.591 401.988 196.458 401.561 196.366L399.979 196.034C399.09 195.849 398.432 195.537 398.005 195.098C397.579 194.655 397.367 194.096 397.371 193.42C397.367 192.848 397.522 192.353 397.836 191.935C398.154 191.512 398.595 191.186 399.158 190.957C399.726 190.723 400.38 190.607 401.12 190.607C402.207 190.607 403.062 190.838 403.686 191.301C404.314 191.764 404.702 192.389 404.851 193.178ZM408.941 196.366V196.209C408.945 195.48 409.014 194.901 409.146 194.47C409.283 194.04 409.476 193.693 409.726 193.432C409.975 193.166 410.279 192.923 410.638 192.701C410.883 192.548 411.102 192.381 411.296 192.2C411.493 192.015 411.648 191.81 411.76 191.585C411.873 191.355 411.929 191.1 411.929 190.818C411.929 190.5 411.855 190.224 411.706 189.991C411.557 189.757 411.356 189.576 411.102 189.447C410.853 189.319 410.573 189.254 410.263 189.254C409.977 189.254 409.706 189.317 409.448 189.441C409.195 189.562 408.983 189.747 408.814 189.997C408.649 190.242 408.557 190.554 408.537 190.933H406.388C406.408 190.168 406.593 189.528 406.943 189.013C407.297 188.498 407.764 188.111 408.343 187.854C408.927 187.596 409.571 187.467 410.275 187.467C411.044 187.467 411.72 187.602 412.304 187.872C412.891 188.141 413.348 188.526 413.674 189.025C414.004 189.52 414.169 190.107 414.169 190.788C414.169 191.246 414.095 191.657 413.946 192.019C413.801 192.381 413.594 192.703 413.324 192.985C413.054 193.267 412.734 193.518 412.364 193.74C412.038 193.941 411.77 194.15 411.561 194.368C411.356 194.585 411.203 194.84 411.102 195.134C411.006 195.424 410.955 195.782 410.951 196.209V196.366H408.941ZM409.992 200.133C409.629 200.133 409.317 200.004 409.056 199.746C408.794 199.489 408.663 199.175 408.663 198.805C408.663 198.442 408.794 198.133 409.056 197.875C409.317 197.617 409.629 197.489 409.992 197.489C410.35 197.489 410.66 197.617 410.921 197.875C411.187 198.133 411.32 198.442 411.32 198.805C411.32 199.05 411.257 199.274 411.133 199.475C411.012 199.676 410.851 199.837 410.65 199.958C410.452 200.074 410.233 200.133 409.992 200.133Z" fill="black"/>
<path d="M171.904 298.88C171.77 298.88 171.597 298.773 171.384 298.56C171.17 298.32 171.01 298.027 170.904 297.68C170.744 297.253 170.57 296.787 170.384 296.28C170.224 295.747 170.144 295.053 170.144 294.2C170.144 293.427 170.517 292.747 171.264 292.16C172.01 291.573 173.064 290.947 174.424 290.28C175.064 289.96 175.637 289.56 176.144 289.08C176.65 288.573 176.904 288 176.904 287.36C176.904 286.213 176.584 285.293 175.944 284.6C175.304 283.88 174.397 283.52 173.224 283.52C172.904 283.52 172.637 283.547 172.424 283.6C172.237 283.627 172.077 283.667 171.944 283.72C171.784 283.747 171.61 283.773 171.424 283.8C171.264 283.827 171.077 283.84 170.864 283.84C170.544 283.84 170.237 283.707 169.944 283.44C169.65 283.147 169.397 282.8 169.184 282.4C168.997 281.973 168.904 281.573 168.904 281.2C168.904 280.773 169.117 280.4 169.544 280.08C169.997 279.733 170.464 279.56 170.944 279.56C171.744 279.56 172.57 279.76 173.424 280.16C174.277 280.56 175.064 281.133 175.784 281.88C176.504 282.6 177.117 283.413 177.624 284.32C178.157 285.2 178.557 286.08 178.824 286.96C179.117 287.84 179.264 288.64 179.264 289.36C179.264 290.373 179.077 291.16 178.704 291.72C178.33 292.28 177.93 292.667 177.504 292.88C176.97 293.147 176.53 293.387 176.184 293.6C175.837 293.813 175.49 294.013 175.144 294.2C174.824 294.387 174.45 294.627 174.024 294.92C173.437 295.24 173.064 295.653 172.904 296.16C172.77 296.667 172.677 297.267 172.624 297.96C172.624 298.173 172.557 298.387 172.424 298.6C172.317 298.787 172.144 298.88 171.904 298.88ZM172.264 306.56C171.57 306.56 170.97 306.307 170.464 305.8C169.957 305.293 169.704 304.693 169.704 304C169.704 303.28 169.957 302.667 170.464 302.16C170.97 301.653 171.57 301.4 172.264 301.4C172.984 301.4 173.597 301.653 174.104 302.16C174.61 302.667 174.864 303.28 174.864 304C174.864 304.693 174.61 305.293 174.104 305.8C173.597 306.307 172.984 306.56 172.264 306.56Z" fill="#D4D4D4"/>
<path d="M265.904 118.88C265.77 118.88 265.597 118.773 265.384 118.56C265.17 118.32 265.01 118.027 264.904 117.68C264.744 117.253 264.57 116.787 264.384 116.28C264.224 115.747 264.144 115.053 264.144 114.2C264.144 113.427 264.517 112.747 265.264 112.16C266.01 111.573 267.064 110.947 268.424 110.28C269.064 109.96 269.637 109.56 270.144 109.08C270.65 108.573 270.904 108 270.904 107.36C270.904 106.213 270.584 105.293 269.944 104.6C269.304 103.88 268.397 103.52 267.224 103.52C266.904 103.52 266.637 103.547 266.424 103.6C266.237 103.627 266.077 103.667 265.944 103.72C265.784 103.747 265.61 103.773 265.424 103.8C265.264 103.827 265.077 103.84 264.864 103.84C264.544 103.84 264.237 103.707 263.944 103.44C263.65 103.147 263.397 102.8 263.184 102.4C262.997 101.973 262.904 101.573 262.904 101.2C262.904 100.773 263.117 100.4 263.544 100.08C263.997 99.7333 264.464 99.56 264.944 99.56C265.744 99.56 266.57 99.76 267.424 100.16C268.277 100.56 269.064 101.133 269.784 101.88C270.504 102.6 271.117 103.413 271.624 104.32C272.157 105.2 272.557 106.08 272.824 106.96C273.117 107.84 273.264 108.64 273.264 109.36C273.264 110.373 273.077 111.16 272.704 111.72C272.33 112.28 271.93 112.667 271.504 112.88C270.97 113.147 270.53 113.387 270.184 113.6C269.837 113.813 269.49 114.013 269.144 114.2C268.824 114.387 268.45 114.627 268.024 114.92C267.437 115.24 267.064 115.653 266.904 116.16C266.77 116.667 266.677 117.267 266.624 117.96C266.624 118.173 266.557 118.387 266.424 118.6C266.317 118.787 266.144 118.88 265.904 118.88ZM266.264 126.56C265.57 126.56 264.97 126.307 264.464 125.8C263.957 125.293 263.704 124.693 263.704 124C263.704 123.28 263.957 122.667 264.464 122.16C264.97 121.653 265.57 121.4 266.264 121.4C266.984 121.4 267.597 121.653 268.104 122.16C268.61 122.667 268.864 123.28 268.864 124C268.864 124.693 268.61 125.293 268.104 125.8C267.597 126.307 266.984 126.56 266.264 126.56Z" fill="#D4D4D4"/>
<path d="M337.904 250.88C337.77 250.88 337.597 250.773 337.384 250.56C337.17 250.32 337.01 250.027 336.904 249.68C336.744 249.253 336.57 248.787 336.384 248.28C336.224 247.747 336.144 247.053 336.144 246.2C336.144 245.427 336.517 244.747 337.264 244.16C338.01 243.573 339.064 242.947 340.424 242.28C341.064 241.96 341.637 241.56 342.144 241.08C342.65 240.573 342.904 240 342.904 239.36C342.904 238.213 342.584 237.293 341.944 236.6C341.304 235.88 340.397 235.52 339.224 235.52C338.904 235.52 338.637 235.547 338.424 235.6C338.237 235.627 338.077 235.667 337.944 235.72C337.784 235.747 337.61 235.773 337.424 235.8C337.264 235.827 337.077 235.84 336.864 235.84C336.544 235.84 336.237 235.707 335.944 235.44C335.65 235.147 335.397 234.8 335.184 234.4C334.997 233.973 334.904 233.573 334.904 233.2C334.904 232.773 335.117 232.4 335.544 232.08C335.997 231.733 336.464 231.56 336.944 231.56C337.744 231.56 338.57 231.76 339.424 232.16C340.277 232.56 341.064 233.133 341.784 233.88C342.504 234.6 343.117 235.413 343.624 236.32C344.157 237.2 344.557 238.08 344.824 238.96C345.117 239.84 345.264 240.64 345.264 241.36C345.264 242.373 345.077 243.16 344.704 243.72C344.33 244.28 343.93 244.667 343.504 244.88C342.97 245.147 342.53 245.387 342.184 245.6C341.837 245.813 341.49 246.013 341.144 246.2C340.824 246.387 340.45 246.627 340.024 246.92C339.437 247.24 339.064 247.653 338.904 248.16C338.77 248.667 338.677 249.267 338.624 249.96C338.624 250.173 338.557 250.387 338.424 250.6C338.317 250.787 338.144 250.88 337.904 250.88ZM338.264 258.56C337.57 258.56 336.97 258.307 336.464 257.8C335.957 257.293 335.704 256.693 335.704 256C335.704 255.28 335.957 254.667 336.464 254.16C336.97 253.653 337.57 253.4 338.264 253.4C338.984 253.4 339.597 253.653 340.104 254.16C340.61 254.667 340.864 255.28 340.864 256C340.864 256.693 340.61 257.293 340.104 257.8C339.597 258.307 338.984 258.56 338.264 258.56Z" fill="#D4D4D4"/>
<path d="M474.904 193.88C474.77 193.88 474.597 193.773 474.384 193.56C474.17 193.32 474.01 193.027 473.904 192.68C473.744 192.253 473.57 191.787 473.384 191.28C473.224 190.747 473.144 190.053 473.144 189.2C473.144 188.427 473.517 187.747 474.264 187.16C475.01 186.573 476.064 185.947 477.424 185.28C478.064 184.96 478.637 184.56 479.144 184.08C479.65 183.573 479.904 183 479.904 182.36C479.904 181.213 479.584 180.293 478.944 179.6C478.304 178.88 477.397 178.52 476.224 178.52C475.904 178.52 475.637 178.547 475.424 178.6C475.237 178.627 475.077 178.667 474.944 178.72C474.784 178.747 474.61 178.773 474.424 178.8C474.264 178.827 474.077 178.84 473.864 178.84C473.544 178.84 473.237 178.707 472.944 178.44C472.65 178.147 472.397 177.8 472.184 177.4C471.997 176.973 471.904 176.573 471.904 176.2C471.904 175.773 472.117 175.4 472.544 175.08C472.997 174.733 473.464 174.56 473.944 174.56C474.744 174.56 475.57 174.76 476.424 175.16C477.277 175.56 478.064 176.133 478.784 176.88C479.504 177.6 480.117 178.413 480.624 179.32C481.157 180.2 481.557 181.08 481.824 181.96C482.117 182.84 482.264 183.64 482.264 184.36C482.264 185.373 482.077 186.16 481.704 186.72C481.33 187.28 480.93 187.667 480.504 187.88C479.97 188.147 479.53 188.387 479.184 188.6C478.837 188.813 478.49 189.013 478.144 189.2C477.824 189.387 477.45 189.627 477.024 189.92C476.437 190.24 476.064 190.653 475.904 191.16C475.77 191.667 475.677 192.267 475.624 192.96C475.624 193.173 475.557 193.387 475.424 193.6C475.317 193.787 475.144 193.88 474.904 193.88ZM475.264 201.56C474.57 201.56 473.97 201.307 473.464 200.8C472.957 200.293 472.704 199.693 472.704 199C472.704 198.28 472.957 197.667 473.464 197.16C473.97 196.653 474.57 196.4 475.264 196.4C475.984 196.4 476.597 196.653 477.104 197.16C477.61 197.667 477.864 198.28 477.864 199C477.864 199.693 477.61 200.293 477.104 200.8C476.597 201.307 475.984 201.56 475.264 201.56Z" fill="#D4D4D4"/>
<path d="M73.9038 165.88C73.7704 165.88 73.5971 165.773 73.3838 165.56C73.1704 165.32 73.0104 165.027 72.9038 164.68C72.7438 164.253 72.5704 163.787 72.3838 163.28C72.2238 162.747 72.1438 162.053 72.1438 161.2C72.1438 160.427 72.5171 159.747 73.2638 159.16C74.0104 158.573 75.0638 157.947 76.4238 157.28C77.0638 156.96 77.6371 156.56 78.1438 156.08C78.6504 155.573 78.9037 155 78.9037 154.36C78.9037 153.213 78.5838 152.293 77.9438 151.6C77.3038 150.88 76.3971 150.52 75.2238 150.52C74.9038 150.52 74.6371 150.547 74.4238 150.6C74.2371 150.627 74.0771 150.667 73.9438 150.72C73.7838 150.747 73.6104 150.773 73.4238 150.8C73.2638 150.827 73.0771 150.84 72.8638 150.84C72.5438 150.84 72.2371 150.707 71.9438 150.44C71.6504 150.147 71.3971 149.8 71.1838 149.4C70.9971 148.973 70.9038 148.573 70.9038 148.2C70.9038 147.773 71.1171 147.4 71.5438 147.08C71.9971 146.733 72.4638 146.56 72.9438 146.56C73.7438 146.56 74.5704 146.76 75.4238 147.16C76.2771 147.56 77.0638 148.133 77.7838 148.88C78.5038 149.6 79.1171 150.413 79.6238 151.32C80.1571 152.2 80.5571 153.08 80.8238 153.96C81.1171 154.84 81.2638 155.64 81.2638 156.36C81.2638 157.373 81.0771 158.16 80.7038 158.72C80.3304 159.28 79.9304 159.667 79.5038 159.88C78.9704 160.147 78.5304 160.387 78.1838 160.6C77.8371 160.813 77.4904 161.013 77.1438 161.2C76.8238 161.387 76.4504 161.627 76.0238 161.92C75.4371 162.24 75.0638 162.653 74.9038 163.16C74.7704 163.667 74.6771 164.267 74.6238 164.96C74.6238 165.173 74.5571 165.387 74.4238 165.6C74.3171 165.787 74.1438 165.88 73.9038 165.88ZM74.2638 173.56C73.5704 173.56 72.9704 173.307 72.4638 172.8C71.9571 172.293 71.7038 171.693 71.7038 171C71.7038 170.28 71.9571 169.667 72.4638 169.16C72.9704 168.653 73.5704 168.4 74.2638 168.4C74.9838 168.4 75.5971 168.653 76.1038 169.16C76.6104 169.667 76.8638 170.28 76.8638 171C76.8638 171.693 76.6104 172.293 76.1038 172.8C75.5971 173.307 74.9838 173.56 74.2638 173.56Z" fill="#D4D4D4"/>
<defs>
<linearGradient id="paint0_linear_297_6040" x1="422.466" y1="45.7504" x2="450.416" y2="94.2682" gradientUnits="userSpaceOnUse">
<stop stop-color="#CA4C28"/>
<stop offset="0.5" stop-color="#C5401E"/>
<stop offset="1" stop-color="#B62F14"/>
</linearGradient>
<linearGradient id="paint1_linear_297_6040" x1="389" y1="312" x2="457" y2="244" gradientUnits="userSpaceOnUse">
<stop stop-color="#BD0816"/>
<stop offset="1" stop-color="#FF5252"/>
</linearGradient>
<linearGradient id="paint2_linear_297_6040" x1="104.044" y1="74.9137" x2="126.593" y2="114.145" gradientUnits="userSpaceOnUse">
<stop stop-color="#2368C4"/>
<stop offset="0.5" stop-color="#1A5DBE"/>
<stop offset="1" stop-color="#1146AC"/>
</linearGradient>
<linearGradient id="paint3_linear_297_6040" x1="65.3328" y1="240.59" x2="85.4511" y2="275.334" gradientUnits="userSpaceOnUse">
<stop stop-color="#18884F"/>
<stop offset="0.5" stop-color="#117E43"/>
<stop offset="1" stop-color="#0B6631"/>
</linearGradient>
<clipPath id="clip0_297_6040">
<rect width="84" height="78" fill="white" transform="translate(415 31)"/>
</clipPath>
<clipPath id="clip1_297_6040">
<rect x="389" y="244" width="68" height="68" rx="4" fill="white"/>
</clipPath>
<clipPath id="clip2_297_6040">
<rect width="68" height="63" fill="white" transform="translate(98 63)"/>
</clipPath>
<clipPath id="clip3_297_6040">
<rect width="60" height="56" fill="white" transform="translate(60 230)"/>
</clipPath>
</defs>
</svg>
