<svg preserveAspectRatio="none" overflow="visible" style="display: block;" width="18.2295" height="18.2244" viewBox="0 0 18.2295 18.2244" fill="none" xmlns="http://www.w3.org/2000/svg">
<path id="Vector (Stroke)" d="M5.48016 0.720303C5.8851 0.543595 6.35666 0.728463 6.53338 1.13339C6.71009 1.53834 6.52525 2.0099 6.1203 2.18661C4.99247 2.67878 4.0023 3.43971 3.23651 4.40292C2.47073 5.36612 1.9525 6.50228 1.72723 7.712C1.50197 8.92171 1.57678 10.1681 1.94451 11.3424C2.31228 12.5167 2.96202 13.5832 3.83709 14.4483C4.71213 15.3134 5.78571 15.9509 6.96405 16.3053C8.14244 16.6596 9.3898 16.7201 10.5969 16.481C11.8038 16.242 12.934 15.7108 13.8884 14.9342C14.8428 14.1574 15.5927 13.1584 16.072 12.025C16.2441 11.6181 16.7134 11.4276 17.1203 11.5997C17.5272 11.7718 17.7175 12.2411 17.5456 12.648C16.9646 14.0221 16.0557 15.2332 14.8986 16.1749C13.7415 17.1166 12.3713 17.7605 10.9079 18.0504C9.44447 18.3402 7.93226 18.267 6.5036 17.8375C5.07489 17.4079 3.77303 16.6349 2.71209 15.586C1.6512 14.5372 0.863043 13.2445 0.417171 11.8209C-0.0286997 10.3972 -0.118645 8.88571 0.154475 7.41903C0.427589 5.95244 1.05569 4.57506 1.98407 3.40732C2.91246 2.2396 4.11289 1.317 5.48016 0.720303ZM9.95282 0.00155341L10.0441 0.00790107L10.2404 0.0298737C12.2631 0.276758 14.1473 1.19349 15.591 2.63681C17.0348 4.08028 17.9521 5.96463 18.1994 7.98739L18.2214 8.18319C18.3197 9.16533 17.5111 9.89462 16.6335 9.89462L16.634 9.89511L9.96649 9.8956C9.53339 9.89556 9.11748 9.7238 8.81121 9.41757C8.5049 9.11126 8.3327 8.69548 8.3327 8.2623V1.59579C8.33272 0.745959 9.01603 -0.0396696 9.95282 0.00155341ZM9.9328 8.2623C9.9328 8.27114 9.93631 8.27997 9.94256 8.28622C9.94877 8.29239 9.95725 8.29595 9.966 8.29599L16.6232 8.29501C16.4402 6.58381 15.6778 4.98613 14.4601 3.76864C13.2423 2.55108 11.6442 1.78863 9.9328 1.60605V8.2623Z" fill="#A3A3A3"/>
</svg>
